<svg width="155" height="171" viewBox="0 0 155 171" fill="none" xmlns="http://www.w3.org/2000/svg">
<g filter="url(#filter0_d_72_567)">
<path d="M45.3871 87.0754C45.3871 88.3224 44.3762 89.3334 43.1291 89.3334C41.882 89.3334 40.8711 88.3224 40.8711 87.0754C40.8711 85.8283 41.882 84.8174 43.1291 84.8174C44.3762 84.8174 45.3871 85.8283 45.3871 87.0754Z" fill="black" stroke="black" stroke-width="4" stroke-linecap="square"/>
<path d="M114.289 87.0754C114.289 88.3224 113.278 89.3334 112.031 89.3334C110.784 89.3334 109.773 88.3224 109.773 87.0754C109.773 85.8283 110.784 84.8174 112.031 84.8174C113.278 84.8174 114.289 85.8283 114.289 87.0754Z" fill="black" stroke="black" stroke-width="4" stroke-linecap="square"/>
<path d="M77.582 82.8174L87.4493 109.183H67.7148" stroke="black" stroke-width="4" stroke-miterlimit="10" stroke-linecap="square"/>
<path d="M36.5352 125.951L37.8455 127.262C60.1504 149.566 96.3166 149.566 118.621 127.262" stroke="black" stroke-width="4" stroke-linecap="square"/>
</g>
<defs>
<filter id="filter0_d_72_567" x="-3.83789" y="0" width="162.838" height="178.321" filterUnits="userSpaceOnUse" color-interpolation-filters="sRGB">
<feFlood flood-opacity="0" result="BackgroundImageFix"/>
<feColorMatrix in="SourceAlpha" type="matrix" values="0 0 0 0 0 0 0 0 0 0 0 0 0 0 0 0 0 0 127 0" result="hardAlpha"/>
<feOffset dy="4"/>
<feGaussianBlur stdDeviation="2"/>
<feComposite in2="hardAlpha" operator="out"/>
<feColorMatrix type="matrix" values="0 0 0 0 0 0 0 0 0 0 0 0 0 0 0 0 0 0 0.25 0"/>
<feBlend mode="normal" in2="BackgroundImageFix" result="effect1_dropShadow_72_567"/>
<feBlend mode="normal" in="SourceGraphic" in2="effect1_dropShadow_72_567" result="shape"/>
</filter>
</defs>
</svg>
