<svg width="350" height="700" viewBox="0 0 350 700" fill="none" xmlns="http://www.w3.org/2000/svg">
<g clip-path="url(#clip0_1_727)">
<rect width="350" height="700" rx="28" fill="white"/>
<rect width="350" height="84.0046" fill="#E9E9E9"/>
<path d="M147.761 172.669V166.686H145.895V165.996H150.421V166.686H148.555V172.669H147.761ZM152.402 172.79C150.834 172.79 149.938 171.726 149.938 170.224C149.938 168.73 150.89 167.638 152.421 167.638C153.942 167.638 154.903 168.73 154.903 170.224C154.903 171.726 153.97 172.79 152.402 172.79ZM152.402 172.165C153.466 172.165 154.063 171.381 154.063 170.214C154.063 169.085 153.457 168.264 152.402 168.264C151.338 168.264 150.731 169.085 150.731 170.214C150.731 171.381 151.329 172.165 152.402 172.165ZM157.658 172.79C156.323 172.79 155.362 171.848 155.362 170.214C155.362 168.702 156.314 167.638 157.602 167.638C158.507 167.638 159.039 168.068 159.319 168.525C159.31 168.189 159.31 167.76 159.31 167.442V165.996H160.084V172.669H159.366V171.922C159.076 172.361 158.507 172.79 157.658 172.79ZM157.77 172.165C158.787 172.165 159.328 171.4 159.328 170.214C159.328 169.076 158.787 168.273 157.77 168.273C156.771 168.273 156.202 169.076 156.202 170.214C156.202 171.4 156.762 172.165 157.77 172.165ZM161.082 169.253V169.234C161.082 168.32 161.884 167.638 163.051 167.638C164.339 167.638 164.955 168.236 164.955 169.738L164.946 171.689C164.946 172.109 164.974 172.436 165.03 172.669H164.33C164.302 172.445 164.283 172.221 164.274 171.941C163.928 172.445 163.415 172.762 162.556 172.762C161.539 172.762 160.848 172.296 160.848 171.409C160.848 170.392 161.782 170.046 163.004 169.841C163.368 169.785 163.788 169.72 164.218 169.682V169.626C164.218 168.665 163.872 168.245 163.014 168.245C162.248 168.245 161.884 168.618 161.819 169.253H161.082ZM164.236 170.476V170.317C164.236 170.28 164.236 170.252 164.246 170.224C164.124 170.252 163.994 170.261 163.872 170.28L162.93 170.429C162.043 170.569 161.642 170.83 161.642 171.39C161.642 171.922 162.08 172.23 162.752 172.23C163.704 172.23 164.236 171.605 164.236 170.476ZM166.532 174.349L167.213 172.697C166.653 171.213 165.916 169.309 165.328 167.769H166.196C166.737 169.328 167.279 170.821 167.624 171.782C167.923 170.97 168.688 168.926 169.089 167.769H169.892C169.033 169.934 168.221 172.109 167.307 174.349H166.532ZM173.196 172.669V167.564H171.59V167.05C172.738 167.022 173.252 166.733 173.364 165.996H173.98V172.669H173.196ZM174.989 172.669V171.997C175.539 171.502 176.295 170.83 176.902 170.298C178.078 169.253 178.414 168.59 178.414 167.834C178.414 167.06 177.938 166.518 177.126 166.518C176.286 166.518 175.791 167.06 175.754 168.096H174.961C174.961 166.78 175.782 165.865 177.163 165.865C178.545 165.865 179.273 166.649 179.273 167.788C179.273 169.197 178.125 170.168 177.098 171.036C176.921 171.185 176.659 171.39 175.903 171.978H179.319V172.669H174.989ZM180.06 169.132V168.096H180.881V169.132H180.06ZM180.06 172.669V171.633H180.881V172.669H180.06ZM182.904 172.669V167.564H181.298V167.05C182.446 167.022 182.96 166.733 183.072 165.996H183.688V172.669H182.904ZM184.697 172.669V171.997C185.248 171.502 186.004 170.83 186.61 170.298C187.786 169.253 188.122 168.59 188.122 167.834C188.122 167.06 187.646 166.518 186.834 166.518C185.994 166.518 185.5 167.06 185.462 168.096H184.669C184.669 166.78 185.49 165.865 186.872 165.865C188.253 165.865 188.981 166.649 188.981 167.788C188.981 169.197 187.833 170.168 186.806 171.036C186.629 171.185 186.368 171.39 185.612 171.978H189.028V172.669H184.697ZM192.026 172.669V165.996H193.939C194.49 165.996 195.003 166.061 195.404 166.266C195.946 166.546 196.3 167.06 196.3 167.918C196.3 168.6 196.048 169.104 195.619 169.421C195.199 169.738 194.611 169.878 193.892 169.878H192.819V172.669H192.026ZM192.819 169.206H193.902C194.779 169.206 195.442 168.852 195.442 167.918C195.442 167.069 194.919 166.668 193.846 166.668H192.819V169.206ZM197.085 172.669V165.996H198.457L199.67 169.981C199.81 170.448 200.053 171.344 200.23 171.904H200.239C200.426 171.344 200.697 170.364 200.846 169.916L202.125 165.996H203.422V172.669H202.629V169.29C202.629 168.581 202.657 167.116 202.657 166.574H202.647C202.526 166.976 202.106 168.376 201.826 169.216L200.678 172.669H199.67L198.345 168.273C198.13 167.564 197.999 167.022 197.869 166.574H197.859C197.869 167.116 197.878 168.002 197.878 168.926V172.669H197.085Z" fill="black"/>
<path d="M55.4769 197.869V191.196H57.3903C57.9409 191.196 58.4543 191.261 58.8556 191.466C59.3969 191.746 59.7516 192.26 59.7516 193.118C59.7516 193.8 59.4996 194.304 59.0703 194.621C58.6503 194.938 58.0623 195.078 57.3436 195.078H56.2703V197.869H55.4769ZM56.2703 194.406H57.3529C58.2303 194.406 58.8929 194.052 58.8929 193.118C58.8929 192.269 58.3703 191.868 57.2969 191.868H56.2703V194.406ZM60.1381 194.453V194.434C60.1381 193.52 60.9407 192.838 62.1074 192.838C63.3954 192.838 64.0114 193.436 64.0114 194.938L64.0021 196.889C64.0021 197.309 64.0301 197.636 64.0861 197.869H63.3861C63.3581 197.645 63.3394 197.421 63.3301 197.141C62.9847 197.645 62.4714 197.962 61.6127 197.962C60.5954 197.962 59.9047 197.496 59.9047 196.609C59.9047 195.592 60.8381 195.246 62.0607 195.041C62.4247 194.985 62.8447 194.92 63.2741 194.882V194.826C63.2741 193.865 62.9287 193.445 62.0701 193.445C61.3047 193.445 60.9407 193.818 60.8754 194.453H60.1381ZM63.2927 195.676V195.517C63.2927 195.48 63.2927 195.452 63.3021 195.424C63.1807 195.452 63.0501 195.461 62.9287 195.48L61.9861 195.629C61.0994 195.769 60.6981 196.03 60.6981 196.59C60.6981 197.122 61.1367 197.43 61.8087 197.43C62.7607 197.43 63.2927 196.805 63.2927 195.676ZM66.6594 198C65.53 198 64.998 197.272 64.998 196.03V192.969H65.7727V195.797C65.7727 196.758 66.1274 197.374 66.958 197.374C67.7607 197.374 68.1807 196.693 68.1807 195.918V192.969H68.9554V197.122C68.9554 197.374 68.9554 197.617 68.9647 197.869H68.1994V197.197C67.966 197.589 67.5087 198 66.6594 198ZM70.0765 197.869V191.196H70.8512V197.869H70.0765ZM74.109 197.869V191.196H74.9023V197.178H77.9076V197.869H74.109ZM78.4626 192.138V191.196H79.2559V192.138H78.4626ZM78.4813 197.869V192.969H79.2373V197.869H78.4813ZM81.8806 197.962C81.0686 197.962 80.5366 197.682 80.5366 196.74V193.548H79.7806V192.969H80.5366V191.644H81.3019V192.969H82.2352V193.548H81.3019V196.674C81.3019 197.169 81.5352 197.374 81.9926 197.374C82.0392 197.374 82.0672 197.374 82.1419 197.365V197.944C82.0579 197.953 81.9646 197.962 81.8806 197.962ZM84.4057 197.962C83.5937 197.962 83.0617 197.682 83.0617 196.74V193.548H82.3057V192.969H83.0617V191.644H83.827V192.969H84.7603V193.548H83.827V196.674C83.827 197.169 84.0603 197.374 84.5177 197.374C84.5643 197.374 84.5923 197.374 84.667 197.365V197.944C84.583 197.953 84.4897 197.962 84.4057 197.962ZM85.4095 197.869V191.196H86.1841V197.869H85.4095ZM89.4243 197.99C87.8843 197.99 86.9696 196.917 86.9696 195.433C86.9696 193.893 87.9496 192.838 89.4336 192.838C91.0483 192.838 91.7576 194.07 91.7576 195.377C91.7576 195.47 91.7483 195.517 91.7483 195.545H87.7443C87.8003 196.702 88.4443 197.365 89.443 197.365C90.1803 197.365 90.6283 196.945 90.8616 196.478H91.6456C91.3376 197.337 90.5443 197.99 89.4243 197.99ZM87.7816 194.966H90.9456C90.8523 194.08 90.3763 193.445 89.415 193.445C88.4816 193.445 87.903 194.061 87.7816 194.966Z" fill="black"/>
<path d="M51.332 279.536H65.332L51.332 293.536V279.536Z" fill="#E9E9E9"/>
<path d="M51.332 225.402C51.332 215.093 59.6894 206.736 69.9987 206.736H312.665C322.975 206.736 331.332 215.093 331.332 225.402V260.402C331.332 270.712 322.975 279.069 312.665 279.069H51.332V225.402Z" fill="#E9E9E9"/>
<path d="M62.4207 238.402V225.056H64.0073V238.402H62.4207ZM65.9382 229.386L67.1515 225.056H68.7755L67.2635 229.386H65.9382ZM69.7806 238.402V230.077C69.7806 229.629 69.7806 229.05 69.7619 228.602H71.2926V230.002C71.7966 229.181 72.7859 228.341 74.4286 228.341C75.9033 228.341 76.8739 228.994 77.3593 230.152C77.8073 229.461 78.7406 228.341 80.8313 228.341C83.0713 228.341 84.1353 229.797 84.1353 232.28V238.402H82.5859V232.765C82.5859 230.805 81.9139 229.592 80.2339 229.592C78.6286 229.592 77.7326 230.88 77.7326 232.41V238.402H76.1833V232.765C76.1833 230.805 75.5113 229.592 73.8313 229.592C72.1886 229.592 71.3299 230.936 71.3299 232.522V238.402H69.7806ZM90.2716 226.941V225.056H91.8583V226.941H90.2716ZM89.2076 241.949C88.909 241.949 88.629 241.912 88.4796 241.874V240.661C88.5356 240.661 88.6476 240.68 88.853 240.68C89.3943 240.68 89.8236 240.586 90.0476 240.288C90.197 240.082 90.2716 239.821 90.2716 239.298V228.602H91.821V239.018C91.821 240.306 91.597 240.922 91.205 241.333C90.7196 241.837 89.9543 241.949 89.2076 241.949ZM97.2747 238.664C95.016 238.664 93.952 237.208 93.952 234.725V228.602H95.5014V234.258C95.5014 236.181 96.2107 237.413 97.872 237.413C99.4774 237.413 100.317 236.05 100.317 234.501V228.602H101.867V236.909C101.867 237.413 101.867 237.898 101.885 238.402H100.355V237.058C99.888 237.842 98.9734 238.664 97.2747 238.664ZM107.338 238.626C105.192 238.626 103.68 237.693 103.269 235.434H104.781C105.136 236.685 105.901 237.413 107.376 237.413C108.72 237.413 109.634 236.76 109.634 235.789C109.634 234.818 108.832 234.538 107.562 234.184L106.405 233.866C104.837 233.437 103.624 232.858 103.624 231.178C103.624 229.424 105.136 228.341 107.264 228.341C109.242 228.341 110.661 229.2 110.96 231.178H109.504C109.224 230.208 108.514 229.554 107.226 229.554C105.882 229.554 105.173 230.17 105.173 230.973C105.173 231.944 106.05 232.242 107.133 232.56L108.365 232.914C110.045 233.4 111.146 234.053 111.146 235.602C111.146 237.525 109.56 238.626 107.338 238.626ZM115.702 238.589C114.078 238.589 113.014 238.029 113.014 236.144V229.76H111.502V228.602H113.014V225.952H114.545V228.602H116.411V229.76H114.545V236.013C114.545 237.002 115.011 237.413 115.926 237.413C116.019 237.413 116.075 237.413 116.225 237.394V238.552C116.057 238.57 115.87 238.589 115.702 238.589ZM125.734 241.93C123.382 241.93 121.87 240.362 121.422 238.72H123.009C123.326 239.616 124.054 240.68 125.865 240.68C128.03 240.68 129.019 239.13 129.019 236.704V236.069C128.478 237.04 127.358 237.954 125.603 237.954C122.841 237.954 121.105 235.938 121.105 233.176C121.105 230.264 123.027 228.341 125.622 228.341C127.377 228.341 128.422 229.125 129.019 230.021C129.019 229.648 129.001 229.088 129.001 228.602H130.531V236.461C130.531 239.728 129.057 241.93 125.734 241.93ZM125.902 236.704C127.638 236.704 129.019 235.378 129.019 233.101C129.019 231.029 127.825 229.61 125.902 229.61C123.942 229.61 122.785 231.066 122.785 233.157C122.785 235.173 123.905 236.704 125.902 236.704ZM136.97 238.645C133.834 238.645 132.042 236.517 132.042 233.512C132.042 230.525 133.946 228.341 137.007 228.341C140.05 228.341 141.972 230.525 141.972 233.512C141.972 236.517 140.106 238.645 136.97 238.645ZM136.97 237.394C139.098 237.394 140.292 235.826 140.292 233.493C140.292 231.234 139.079 229.592 136.97 229.592C134.842 229.592 133.628 231.234 133.628 233.493C133.628 235.826 134.823 237.394 136.97 237.394ZM143.505 226.941V225.056H145.092V226.941H143.505ZM143.542 238.402V228.602H145.054V238.402H143.542ZM147.298 238.402V230.077C147.298 229.629 147.298 229.05 147.28 228.602H148.81V230.002C149.314 229.181 150.322 228.341 152.002 228.341C154.242 228.341 155.362 229.797 155.362 232.28V238.402H153.813V232.765C153.813 230.805 153.085 229.592 151.405 229.592C149.762 229.592 148.848 230.936 148.848 232.522V238.402H147.298ZM161.502 241.93C159.15 241.93 157.638 240.362 157.19 238.72H158.777C159.094 239.616 159.822 240.68 161.633 240.68C163.798 240.68 164.788 239.13 164.788 236.704V236.069C164.246 237.04 163.126 237.954 161.372 237.954C158.609 237.954 156.873 235.938 156.873 233.176C156.873 230.264 158.796 228.341 161.39 228.341C163.145 228.341 164.19 229.125 164.788 230.021C164.788 229.648 164.769 229.088 164.769 228.602H166.3V236.461C166.3 239.728 164.825 241.93 161.502 241.93ZM161.67 236.704C163.406 236.704 164.788 235.378 164.788 233.101C164.788 231.029 163.593 229.61 161.67 229.61C159.71 229.61 158.553 231.066 158.553 233.157C158.553 235.173 159.673 236.704 161.67 236.704ZM175.317 238.589C173.693 238.589 172.629 238.029 172.629 236.144V229.76H171.117V228.602H172.629V225.952H174.16V228.602H176.026V229.76H174.16V236.013C174.16 237.002 174.626 237.413 175.541 237.413C175.634 237.413 175.69 237.413 175.84 237.394V238.552C175.672 238.57 175.485 238.589 175.317 238.589ZM181.435 238.645C178.299 238.645 176.507 236.517 176.507 233.512C176.507 230.525 178.411 228.341 181.472 228.341C184.515 228.341 186.437 230.525 186.437 233.512C186.437 236.517 184.571 238.645 181.435 238.645ZM181.435 237.394C183.563 237.394 184.757 235.826 184.757 233.493C184.757 231.234 183.544 229.592 181.435 229.592C179.307 229.592 178.093 231.234 178.093 233.493C178.093 235.826 179.288 237.394 181.435 237.394ZM195.248 238.626C193.101 238.626 191.589 237.693 191.179 235.434H192.691C193.045 236.685 193.811 237.413 195.285 237.413C196.629 237.413 197.544 236.76 197.544 235.789C197.544 234.818 196.741 234.538 195.472 234.184L194.315 233.866C192.747 233.437 191.533 232.858 191.533 231.178C191.533 229.424 193.045 228.341 195.173 228.341C197.152 228.341 198.571 229.2 198.869 231.178H197.413C197.133 230.208 196.424 229.554 195.136 229.554C193.792 229.554 193.083 230.17 193.083 230.973C193.083 231.944 193.96 232.242 195.043 232.56L196.275 232.914C197.955 233.4 199.056 234.053 199.056 235.602C199.056 237.525 197.469 238.626 195.248 238.626ZM200.326 231.57V231.533C200.326 229.704 201.932 228.341 204.265 228.341C206.841 228.341 208.073 229.536 208.073 232.541L208.054 236.442C208.054 237.282 208.11 237.936 208.222 238.402H206.822C206.766 237.954 206.729 237.506 206.71 236.946C206.02 237.954 204.993 238.589 203.276 238.589C201.241 238.589 199.86 237.656 199.86 235.882C199.86 233.848 201.726 233.157 204.172 232.746C204.9 232.634 205.74 232.504 206.598 232.429V232.317C206.598 230.394 205.908 229.554 204.19 229.554C202.66 229.554 201.932 230.301 201.801 231.57H200.326ZM206.636 234.016V233.698C206.636 233.624 206.636 233.568 206.654 233.512C206.412 233.568 206.15 233.586 205.908 233.624L204.022 233.922C202.249 234.202 201.446 234.725 201.446 235.845C201.446 236.909 202.324 237.525 203.668 237.525C205.572 237.525 206.636 236.274 206.636 234.016ZM211.227 241.762L212.589 238.458C211.469 235.49 209.995 231.682 208.819 228.602H210.555C211.637 231.72 212.72 234.706 213.411 236.629C214.008 235.005 215.539 230.917 216.341 228.602H217.947C216.229 232.933 214.605 237.282 212.776 241.762H211.227ZM222.464 226.941V225.056H224.05V226.941H222.464ZM222.501 238.402V228.602H224.013V238.402H222.501ZM229.3 238.589C227.676 238.589 226.612 238.029 226.612 236.144V229.76H225.1V228.602H226.612V225.952H228.142V228.602H230.009V229.76H228.142V236.013C228.142 237.002 228.609 237.413 229.524 237.413C229.617 237.413 229.673 237.413 229.822 237.394V238.552C229.654 238.57 229.468 238.589 229.3 238.589ZM237.262 238.402V236.33H238.904V238.402H237.262ZM231.064 238.402V236.33H232.707V238.402H231.064ZM243.552 238.402V236.33H245.195V238.402H243.552ZM250.415 238.626C248.268 238.626 246.756 237.693 246.345 235.434H247.857C248.212 236.685 248.977 237.413 250.452 237.413C251.796 237.413 252.711 236.76 252.711 235.789C252.711 234.818 251.908 234.538 250.639 234.184L249.481 233.866C247.913 233.437 246.7 232.858 246.7 231.178C246.7 229.424 248.212 228.341 250.34 228.341C252.319 228.341 253.737 229.2 254.036 231.178H252.58C252.3 230.208 251.591 229.554 250.303 229.554C248.959 229.554 248.249 230.17 248.249 230.973C248.249 231.944 249.127 232.242 250.209 232.56L251.441 232.914C253.121 233.4 254.223 234.053 254.223 235.602C254.223 237.525 252.636 238.626 250.415 238.626ZM255.736 238.402V225.056H257.285V228.192C257.285 228.789 257.266 229.517 257.248 230.002C257.752 229.181 258.76 228.341 260.44 228.341C262.68 228.341 263.8 229.797 263.8 232.28V238.402H262.25V232.765C262.25 230.805 261.522 229.592 259.842 229.592C258.2 229.592 257.285 230.936 257.285 232.522V238.402H255.736ZM270.182 238.645C267.046 238.645 265.254 236.517 265.254 233.512C265.254 230.525 267.158 228.341 270.22 228.341C273.262 228.341 275.185 230.525 275.185 233.512C275.185 236.517 273.318 238.645 270.182 238.645ZM270.182 237.394C272.31 237.394 273.505 235.826 273.505 233.493C273.505 231.234 272.292 229.592 270.182 229.592C268.054 229.592 266.841 231.234 266.841 233.493C266.841 235.826 268.036 237.394 270.182 237.394ZM279.966 238.664C277.707 238.664 276.643 237.208 276.643 234.725V228.602H278.193V234.258C278.193 236.181 278.902 237.413 280.563 237.413C282.169 237.413 283.009 236.05 283.009 234.501V228.602H284.558V236.909C284.558 237.413 284.558 237.898 284.577 238.402H283.046V237.058C282.579 237.842 281.665 238.664 279.966 238.664ZM286.8 238.402V225.056H288.35V238.402H286.8ZM294.531 238.645C291.862 238.645 289.939 236.76 289.939 233.493C289.939 230.469 291.843 228.341 294.419 228.341C296.23 228.341 297.294 229.2 297.854 230.114C297.835 229.442 297.835 228.584 297.835 227.949V225.056H299.385V238.402H297.947V236.909C297.369 237.786 296.23 238.645 294.531 238.645ZM294.755 237.394C296.79 237.394 297.873 235.864 297.873 233.493C297.873 231.216 296.79 229.61 294.755 229.61C292.758 229.61 291.619 231.216 291.619 233.493C291.619 235.864 292.739 237.394 294.755 237.394ZM301.622 238.402V230.077C301.622 229.629 301.622 229.05 301.603 228.602H303.134V230.002C303.638 229.181 304.646 228.341 306.326 228.341C308.566 228.341 309.686 229.797 309.686 232.28V238.402H308.137V232.765C308.137 230.805 307.409 229.592 305.729 229.592C304.086 229.592 303.171 230.936 303.171 232.522V238.402H301.622ZM310.87 229.386L312.083 225.056H313.707L312.195 229.386H310.87ZM318.083 238.589C316.459 238.589 315.395 238.029 315.395 236.144V229.76H313.883V228.602H315.395V225.952H316.926V228.602H318.792V229.76H316.926V236.013C316.926 237.002 317.392 237.413 318.307 237.413C318.4 237.413 318.456 237.413 318.606 237.394V238.552C318.438 238.57 318.251 238.589 318.083 238.589ZM64.138 260.402C63.018 256.781 62.5513 255.213 61.114 250.602H62.794L64.25 255.68C64.5113 256.613 64.6607 257.098 65.202 259.133H65.2393C65.5567 257.77 65.874 256.669 66.2287 255.269L67.4233 250.602H69.346L70.41 255.045C70.69 256.221 71.0073 257.602 71.3807 259.114H71.418C71.7913 257.714 72.2393 256.333 72.6873 254.821L73.938 250.602H75.4873C74.6473 253.178 73.322 257.416 72.3887 260.402H70.3167L69.3833 256.613C69.01 255.082 68.562 253.048 68.3753 252.152H68.3193C68.058 253.253 67.5913 255.306 67.218 256.688L66.21 260.402H64.138ZM80.6891 260.645C77.6091 260.645 75.7797 258.498 75.7797 255.53C75.7797 252.45 77.7397 250.341 80.7077 250.341C83.9371 250.341 85.3557 252.805 85.3557 255.418C85.3557 255.605 85.3371 255.698 85.3371 255.754H77.3291C77.4411 258.069 78.7291 259.394 80.7264 259.394C82.2011 259.394 83.0971 258.554 83.5637 257.621H85.1317C84.5157 259.338 82.9291 260.645 80.6891 260.645ZM77.4037 254.597H83.7317C83.5451 252.824 82.5931 251.554 80.6704 251.554C78.8037 251.554 77.6464 252.786 77.4037 254.597ZM90.648 253.57V253.533C90.648 251.704 92.2534 250.341 94.5867 250.341C97.1627 250.341 98.3947 251.536 98.3947 254.541L98.376 258.442C98.376 259.282 98.432 259.936 98.544 260.402H97.144C97.088 259.954 97.0507 259.506 97.032 258.946C96.3414 259.954 95.3147 260.589 93.5974 260.589C91.5627 260.589 90.1814 259.656 90.1814 257.882C90.1814 255.848 92.048 255.157 94.4934 254.746C95.2214 254.634 96.0614 254.504 96.92 254.429V254.317C96.92 252.394 96.2294 251.554 94.512 251.554C92.9814 251.554 92.2534 252.301 92.1227 253.57H90.648ZM96.9574 256.016V255.698C96.9574 255.624 96.9574 255.568 96.976 255.512C96.7334 255.568 96.472 255.586 96.2294 255.624L94.344 255.922C92.5707 256.202 91.768 256.725 91.768 257.845C91.768 258.909 92.6454 259.525 93.9894 259.525C95.8934 259.525 96.9574 258.274 96.9574 256.016ZM100.48 260.402V247.056H102.029V260.402H100.48ZM104.272 260.402V247.056H105.822V260.402H104.272ZM114.9 260.589C113.276 260.589 112.212 260.029 112.212 258.144V251.76H110.7V250.602H112.212V247.952H113.742V250.602H115.609V251.76H113.742V258.013C113.742 259.002 114.209 259.413 115.124 259.413C115.217 259.413 115.273 259.413 115.422 259.394V260.552C115.254 260.57 115.068 260.589 114.9 260.589ZM116.907 260.402V252.077C116.907 251.629 116.907 251.05 116.889 250.602H118.363V252.189C118.699 251.162 119.726 250.378 120.846 250.378C120.939 250.378 121.051 250.378 121.145 250.397V251.872C120.995 251.834 120.715 251.816 120.51 251.816C118.998 251.816 118.457 253.085 118.457 255.045V260.402H116.907ZM123.573 263.762L124.935 260.458C123.815 257.49 122.341 253.682 121.165 250.602H122.901C123.983 253.72 125.066 256.706 125.757 258.629C126.354 257.005 127.885 252.917 128.687 250.602H130.293C128.575 254.933 126.951 259.282 125.122 263.762H123.573ZM137.671 260.589C136.047 260.589 134.983 260.029 134.983 258.144V251.76H133.471V250.602H134.983V247.952H136.514V250.602H138.38V251.76H136.514V258.013C136.514 259.002 136.98 259.413 137.895 259.413C137.988 259.413 138.044 259.413 138.194 259.394V260.552C138.026 260.57 137.839 260.589 137.671 260.589ZM143.789 260.645C140.653 260.645 138.861 258.517 138.861 255.512C138.861 252.525 140.765 250.341 143.826 250.341C146.869 250.341 148.791 252.525 148.791 255.512C148.791 258.517 146.925 260.645 143.789 260.645ZM143.789 259.394C145.917 259.394 147.111 257.826 147.111 255.493C147.111 253.234 145.898 251.592 143.789 251.592C141.661 251.592 140.447 253.234 140.447 255.493C140.447 257.826 141.642 259.394 143.789 259.394ZM154.373 260.402V247.056H155.922V260.402H154.373ZM158.128 248.941V247.056H159.714V248.941H158.128ZM158.165 260.402V250.602H159.677V260.402H158.165ZM164.422 260.402C163.246 257.229 161.977 253.738 160.782 250.602H162.518L164.31 255.773C164.758 257.061 164.945 257.528 165.393 258.946H165.43C165.86 257.584 166.14 256.93 166.625 255.549L168.361 250.602H169.948L166.214 260.402H164.422ZM175 260.645C171.92 260.645 170.091 258.498 170.091 255.53C170.091 252.45 172.051 250.341 175.019 250.341C178.248 250.341 179.667 252.805 179.667 255.418C179.667 255.605 179.648 255.698 179.648 255.754H171.64C171.752 258.069 173.04 259.394 175.038 259.394C176.512 259.394 177.408 258.554 177.875 257.621H179.443C178.827 259.338 177.24 260.645 175 260.645ZM171.715 254.597H178.043C177.856 252.824 176.904 251.554 174.982 251.554C173.115 251.554 171.958 252.786 171.715 254.597ZM185.202 260.402V252.077C185.202 251.629 185.202 251.05 185.183 250.602H186.714V252.002C187.218 251.181 188.226 250.341 189.906 250.341C192.146 250.341 193.266 251.797 193.266 254.28V260.402H191.717V254.765C191.717 252.805 190.989 251.592 189.309 251.592C187.666 251.592 186.751 252.936 186.751 254.522V260.402H185.202ZM199.63 260.645C196.55 260.645 194.721 258.498 194.721 255.53C194.721 252.45 196.681 250.341 199.649 250.341C202.878 250.341 204.297 252.805 204.297 255.418C204.297 255.605 204.278 255.698 204.278 255.754H196.27C196.382 258.069 197.67 259.394 199.667 259.394C201.142 259.394 202.038 258.554 202.505 257.621H204.073C203.457 259.338 201.87 260.645 199.63 260.645ZM196.345 254.597H202.673C202.486 252.824 201.534 251.554 199.611 251.554C197.745 251.554 196.587 252.786 196.345 254.597ZM205.578 253.57V253.533C205.578 251.704 207.183 250.341 209.516 250.341C212.092 250.341 213.324 251.536 213.324 254.541L213.306 258.442C213.306 259.282 213.362 259.936 213.474 260.402H212.074C212.018 259.954 211.98 259.506 211.962 258.946C211.271 259.954 210.244 260.589 208.527 260.589C206.492 260.589 205.111 259.656 205.111 257.882C205.111 255.848 206.978 255.157 209.423 254.746C210.151 254.634 210.991 254.504 211.85 254.429V254.317C211.85 252.394 211.159 251.554 209.442 251.554C207.911 251.554 207.183 252.301 207.052 253.57H205.578ZM211.887 256.016V255.698C211.887 255.624 211.887 255.568 211.906 255.512C211.663 255.568 211.402 255.586 211.159 255.624L209.274 255.922C207.5 256.202 206.698 256.725 206.698 257.845C206.698 258.909 207.575 259.525 208.919 259.525C210.823 259.525 211.887 258.274 211.887 256.016ZM215.41 260.402V252.077C215.41 251.629 215.41 251.05 215.391 250.602H216.866V252.189C217.202 251.162 218.228 250.378 219.348 250.378C219.442 250.378 219.554 250.378 219.647 250.397V251.872C219.498 251.834 219.218 251.816 219.012 251.816C217.5 251.816 216.959 253.085 216.959 255.045V260.402H215.41ZM228.654 260.645C225.574 260.645 223.744 258.498 223.744 255.53C223.744 252.45 225.704 250.341 228.672 250.341C231.902 250.341 233.32 252.805 233.32 255.418C233.32 255.605 233.302 255.698 233.302 255.754H225.294C225.406 258.069 226.694 259.394 228.691 259.394C230.166 259.394 231.062 258.554 231.528 257.621H233.096C232.48 259.338 230.894 260.645 228.654 260.645ZM225.368 254.597H231.696C231.51 252.824 230.558 251.554 228.635 251.554C226.768 251.554 225.611 252.786 225.368 254.597ZM234.602 253.57V253.533C234.602 251.704 236.207 250.341 238.54 250.341C241.116 250.341 242.348 251.536 242.348 254.541L242.33 258.442C242.33 259.282 242.386 259.936 242.498 260.402H241.098C241.042 259.954 241.004 259.506 240.986 258.946C240.295 259.954 239.268 260.589 237.551 260.589C235.516 260.589 234.135 259.656 234.135 257.882C234.135 255.848 236.002 255.157 238.447 254.746C239.175 254.634 240.015 254.504 240.874 254.429V254.317C240.874 252.394 240.183 251.554 238.466 251.554C236.935 251.554 236.207 252.301 236.076 253.57H234.602ZM240.911 256.016V255.698C240.911 255.624 240.911 255.568 240.93 255.512C240.687 255.568 240.426 255.586 240.183 255.624L238.298 255.922C236.524 256.202 235.722 256.725 235.722 257.845C235.722 258.909 236.599 259.525 237.943 259.525C239.847 259.525 240.911 258.274 240.911 256.016ZM248.652 260.645C245.666 260.645 243.762 258.629 243.762 255.474C243.762 252.376 245.778 250.341 248.671 250.341C251.303 250.341 252.722 251.872 253.244 253.794H251.714C251.284 252.637 250.407 251.592 248.671 251.592C246.58 251.592 245.348 253.234 245.348 255.493C245.348 257.845 246.506 259.394 248.671 259.394C250.351 259.394 251.21 258.48 251.714 257.304H253.226C252.666 259.17 251.154 260.645 248.652 260.645ZM254.661 260.402V247.056H256.21V250.192C256.21 250.789 256.191 251.517 256.173 252.002C256.677 251.181 257.685 250.341 259.365 250.341C261.605 250.341 262.725 251.797 262.725 254.28V260.402H261.175V254.765C261.175 252.805 260.447 251.592 258.767 251.592C257.125 251.592 256.21 252.936 256.21 254.522V260.402H254.661ZM273.119 260.645C269.983 260.645 268.191 258.517 268.191 255.512C268.191 252.525 270.095 250.341 273.156 250.341C276.199 250.341 278.121 252.525 278.121 255.512C278.121 258.517 276.255 260.645 273.119 260.645ZM273.119 259.394C275.247 259.394 276.441 257.826 276.441 255.493C276.441 253.234 275.228 251.592 273.119 251.592C270.991 251.592 269.777 253.234 269.777 255.493C269.777 257.826 270.972 259.394 273.119 259.394ZM282.625 260.589C281.001 260.589 279.937 260.029 279.937 258.144V251.76H278.425V250.602H279.937V247.952H281.468V250.602H283.334V251.76H281.468V258.013C281.468 259.002 281.934 259.413 282.849 259.413C282.942 259.413 282.998 259.413 283.148 259.394V260.552C282.98 260.57 282.793 260.589 282.625 260.589ZM284.632 260.402V247.056H286.182V250.192C286.182 250.789 286.163 251.517 286.144 252.002C286.648 251.181 287.656 250.341 289.336 250.341C291.576 250.341 292.696 251.797 292.696 254.28V260.402H291.147V254.765C291.147 252.805 290.419 251.592 288.739 251.592C287.096 251.592 286.182 252.936 286.182 254.522V260.402H284.632ZM299.061 260.645C295.981 260.645 294.151 258.498 294.151 255.53C294.151 252.45 296.111 250.341 299.079 250.341C302.309 250.341 303.727 252.805 303.727 255.418C303.727 255.605 303.709 255.698 303.709 255.754H295.701C295.813 258.069 297.101 259.394 299.098 259.394C300.573 259.394 301.469 258.554 301.935 257.621H303.503C302.887 259.338 301.301 260.645 299.061 260.645ZM295.775 254.597H302.103C301.917 252.824 300.965 251.554 299.042 251.554C297.175 251.554 296.018 252.786 295.775 254.597ZM305.251 260.402V252.077C305.251 251.629 305.251 251.05 305.232 250.602H306.707V252.189C307.043 251.162 308.07 250.378 309.19 250.378C309.283 250.378 309.395 250.378 309.488 250.397V251.872C309.339 251.834 309.059 251.816 308.854 251.816C307.342 251.816 306.8 253.085 306.8 255.045V260.402H305.251ZM313.032 256.688C313.05 254.952 313.424 254.224 314.432 253.328C315.309 252.544 316.261 251.797 316.261 250.266C316.261 248.978 315.44 248.101 313.853 248.101C312.248 248.101 311.426 249.053 311.37 250.864H309.802C309.784 248.381 311.464 246.794 313.928 246.794C316.448 246.794 317.922 248.269 317.922 250.229C317.922 251.853 316.877 252.917 315.925 253.757C315.029 254.541 314.469 255.101 314.45 256.688H313.032ZM312.92 260.402V258.405H314.562V260.402H312.92Z" fill="black"/>
<circle cx="32.666" cy="279.536" r="14" fill="#CCFF9A"/>
<path d="M24.9901 284.402V274.392H27.9861C28.4901 274.392 28.6161 274.392 29.0501 274.406C31.2481 274.476 32.5081 275.666 32.5081 277.598C32.5081 278.662 32.1161 279.572 31.3741 280.132C30.4501 280.832 29.1901 280.832 28.1261 280.832H27.2861V284.402H24.9901ZM27.2861 278.956H28.4481C29.5541 278.956 30.1981 278.55 30.1981 277.64C30.1981 276.758 29.6521 276.338 28.4061 276.338H27.2861V278.956ZM33.9315 284.402V274.392H36.2275V282.428H40.4275V284.402H33.9315Z" fill="black"/>
<path d="M51.334 667.333H65.334L51.334 681.333V667.333Z" fill="#E9E9E9"/>
<path d="M51.334 644C51.334 633.691 59.6913 625.333 70.0007 625.333H98.0007C108.31 625.333 116.667 633.691 116.667 644V648.667C116.667 658.976 108.31 667.333 98.0007 667.333H51.334V644Z" fill="#E9E9E9"/>
<circle cx="75.6009" cy="646.333" r="2.33333" fill="black"/>
<circle cx="84.0013" cy="646.333" r="2.33333" fill="black"/>
<circle cx="92.4017" cy="646.333" r="2.33333" fill="black"/>
<circle cx="32.666" cy="667.333" r="14" fill="#CCFF9A"/>
<path d="M24.9901 672.2V662.19H27.9861C28.4901 662.19 28.6161 662.19 29.0501 662.204C31.2481 662.274 32.5081 663.464 32.5081 665.396C32.5081 666.46 32.1161 667.37 31.3741 667.93C30.4501 668.63 29.1901 668.63 28.1261 668.63H27.2861V672.2H24.9901ZM27.2861 666.754H28.4481C29.5541 666.754 30.1981 666.348 30.1981 665.438C30.1981 664.556 29.6521 664.136 28.4061 664.136H27.2861V666.754ZM33.9315 672.2V662.19H36.2275V670.226H40.4275V672.2H33.9315Z" fill="black"/>
<path d="M51.332 592.202H65.332L51.332 606.202V592.202Z" fill="#E9E9E9"/>
<path d="M51.332 516.602H282.799V573.936C282.799 584.245 274.441 592.602 264.132 592.602H51.332V516.602Z" fill="#E9E9E9"/>
<path d="M64.3807 548.53C62.1593 548.53 61.114 547.317 61.0953 545.04H62.6447C62.6633 546.29 63.0367 547.261 64.418 547.261C66.0793 547.261 66.3033 545.824 66.3033 543.92V534.922H67.89V544.536C67.89 546.869 66.938 548.53 64.3807 548.53ZM74.4187 548.512C71.2827 548.512 69.4907 546.384 69.4907 543.378C69.4907 540.392 71.3947 538.208 74.456 538.208C77.4987 538.208 79.4213 540.392 79.4213 543.378C79.4213 546.384 77.5547 548.512 74.4187 548.512ZM74.4187 547.261C76.5467 547.261 77.7413 545.693 77.7413 543.36C77.7413 541.101 76.528 539.458 74.4187 539.458C72.2907 539.458 71.0773 541.101 71.0773 543.36C71.0773 545.693 72.272 547.261 74.4187 547.261ZM80.9542 536.808V534.922H82.5409V536.808H80.9542ZM80.9915 548.269V538.469H82.5035V548.269H80.9915ZM84.7475 548.269V539.944C84.7475 539.496 84.7475 538.917 84.7288 538.469H86.2595V539.869C86.7635 539.048 87.7715 538.208 89.4515 538.208C91.6915 538.208 92.8115 539.664 92.8115 542.146V548.269H91.2621V542.632C91.2621 540.672 90.5341 539.458 88.8541 539.458C87.2115 539.458 86.2968 540.802 86.2968 542.389V548.269H84.7475ZM99.2108 548.269V534.922H103.037C104.139 534.922 105.165 535.053 105.968 535.464C107.051 536.024 107.76 537.05 107.76 538.768C107.76 540.13 107.256 541.138 106.397 541.773C105.557 542.408 104.381 542.688 102.944 542.688H100.797V548.269H99.2108ZM100.797 541.344H102.963C104.717 541.344 106.043 540.634 106.043 538.768C106.043 537.069 104.997 536.266 102.851 536.266H100.797V541.344ZM108.533 541.437V541.4C108.533 539.57 110.138 538.208 112.472 538.208C115.048 538.208 116.28 539.402 116.28 542.408L116.261 546.309C116.261 547.149 116.317 547.802 116.429 548.269H115.029C114.973 547.821 114.936 547.373 114.917 546.813C114.226 547.821 113.2 548.456 111.482 548.456C109.448 548.456 108.066 547.522 108.066 545.749C108.066 543.714 109.933 543.024 112.378 542.613C113.106 542.501 113.946 542.37 114.805 542.296V542.184C114.805 540.261 114.114 539.421 112.397 539.421C110.866 539.421 110.138 540.168 110.008 541.437H108.533ZM114.842 543.882V543.565C114.842 543.49 114.842 543.434 114.861 543.378C114.618 543.434 114.357 543.453 114.114 543.49L112.229 543.789C110.456 544.069 109.653 544.592 109.653 545.712C109.653 546.776 110.53 547.392 111.874 547.392C113.778 547.392 114.842 546.141 114.842 543.882ZM121.576 548.53C119.317 548.53 118.253 547.074 118.253 544.592V538.469H119.802V544.125C119.802 546.048 120.512 547.28 122.173 547.28C123.778 547.28 124.618 545.917 124.618 544.368V538.469H126.168V546.776C126.168 547.28 126.168 547.765 126.186 548.269H124.656V546.925C124.189 547.709 123.274 548.53 121.576 548.53ZM128.41 548.269V534.922H129.959V548.269H128.41ZM131.624 539.253L132.837 534.922H134.461L132.949 539.253H131.624ZM138.331 548.493C136.184 548.493 134.672 547.56 134.262 545.301H135.774C136.128 546.552 136.894 547.28 138.368 547.28C139.712 547.28 140.627 546.626 140.627 545.656C140.627 544.685 139.824 544.405 138.555 544.05L137.398 543.733C135.83 543.304 134.616 542.725 134.616 541.045C134.616 539.29 136.128 538.208 138.256 538.208C140.235 538.208 141.654 539.066 141.952 541.045H140.496C140.216 540.074 139.507 539.421 138.219 539.421C136.875 539.421 136.166 540.037 136.166 540.84C136.166 541.81 137.043 542.109 138.126 542.426L139.358 542.781C141.038 543.266 142.139 543.92 142.139 545.469C142.139 547.392 140.552 548.493 138.331 548.493ZM147.663 548.269V539.944C147.663 539.496 147.663 538.917 147.644 538.469H149.175V539.869C149.679 539.048 150.668 538.208 152.311 538.208C153.786 538.208 154.756 538.861 155.242 540.018C155.69 539.328 156.623 538.208 158.714 538.208C160.954 538.208 162.018 539.664 162.018 542.146V548.269H160.468V542.632C160.468 540.672 159.796 539.458 158.116 539.458C156.511 539.458 155.615 540.746 155.615 542.277V548.269H154.066V542.632C154.066 540.672 153.394 539.458 151.714 539.458C150.071 539.458 149.212 540.802 149.212 542.389V548.269H147.663ZM164.105 536.808V534.922H165.692V536.808H164.105ZM164.143 548.269V538.469H165.655V548.269H164.143ZM167.899 548.269V539.944C167.899 539.496 167.899 538.917 167.88 538.469H169.411V539.869C169.915 539.048 170.923 538.208 172.603 538.208C174.843 538.208 175.963 539.664 175.963 542.146V548.269H174.413V542.632C174.413 540.672 173.685 539.458 172.005 539.458C170.363 539.458 169.448 540.802 169.448 542.389V548.269H167.899ZM178.052 536.808V534.922H179.639V536.808H178.052ZM178.09 548.269V538.469H179.602V548.269H178.09ZM185.857 548.269V534.922H187.406V538.058C187.406 538.656 187.387 539.384 187.369 539.869C187.873 539.048 188.881 538.208 190.561 538.208C192.801 538.208 193.921 539.664 193.921 542.146V548.269H192.371V542.632C192.371 540.672 191.643 539.458 189.963 539.458C188.321 539.458 187.406 540.802 187.406 542.389V548.269H185.857ZM200.303 548.512C197.167 548.512 195.375 546.384 195.375 543.378C195.375 540.392 197.279 538.208 200.341 538.208C203.383 538.208 205.306 540.392 205.306 543.378C205.306 546.384 203.439 548.512 200.303 548.512ZM200.303 547.261C202.431 547.261 203.626 545.693 203.626 543.36C203.626 541.101 202.413 539.458 200.303 539.458C198.175 539.458 196.962 541.101 196.962 543.36C196.962 545.693 198.157 547.261 200.303 547.261ZM211.132 548.512C207.996 548.512 206.204 546.384 206.204 543.378C206.204 540.392 208.108 538.208 211.17 538.208C214.212 538.208 216.135 540.392 216.135 543.378C216.135 546.384 214.268 548.512 211.132 548.512ZM211.132 547.261C213.26 547.261 214.455 545.693 214.455 543.36C214.455 541.101 213.242 539.458 211.132 539.458C209.004 539.458 207.791 541.101 207.791 543.36C207.791 545.693 208.986 547.261 211.132 547.261ZM221.644 548.512C218.975 548.512 217.052 546.626 217.052 543.36C217.052 540.336 218.956 538.208 221.532 538.208C223.343 538.208 224.407 539.066 224.967 539.981C224.948 539.309 224.948 538.45 224.948 537.816V534.922H226.497V548.269H225.06V546.776C224.481 547.653 223.343 548.512 221.644 548.512ZM221.868 547.261C223.903 547.261 224.985 545.73 224.985 543.36C224.985 541.082 223.903 539.477 221.868 539.477C219.871 539.477 218.732 541.082 218.732 543.36C218.732 545.73 219.852 547.261 221.868 547.261Z" fill="black"/>
<path d="M61.4127 573.936V567.262H62.1873V573.936H61.4127ZM63.2902 568.205V567.262H64.0835V568.205H63.2902ZM63.3089 573.936V569.036H64.0649V573.936H63.3089ZM66.4375 573.936C65.8495 572.349 65.2148 570.604 64.6175 569.036H65.4855L66.3815 571.621C66.6055 572.265 66.6988 572.498 66.9228 573.208H66.9415C67.1562 572.526 67.2962 572.2 67.5388 571.509L68.4068 569.036H69.2002L67.3335 573.936H66.4375ZM71.7265 574.057C70.1865 574.057 69.2718 572.984 69.2718 571.5C69.2718 569.96 70.2518 568.905 71.7358 568.905C73.3505 568.905 74.0598 570.137 74.0598 571.444C74.0598 571.537 74.0505 571.584 74.0505 571.612H70.0465C70.1025 572.769 70.7465 573.432 71.7451 573.432C72.4825 573.432 72.9305 573.012 73.1638 572.545H73.9478C73.6398 573.404 72.8465 574.057 71.7265 574.057ZM70.0838 571.033H73.2478C73.1545 570.146 72.6785 569.512 71.7171 569.512C70.7838 569.512 70.2051 570.128 70.0838 571.033ZM74.8217 573.936V569.773C74.8217 569.549 74.8217 569.26 74.8124 569.036H75.5777V569.736C75.8297 569.325 76.3337 568.905 77.1737 568.905C78.2937 568.905 78.8537 569.633 78.8537 570.874V573.936H78.079V571.117C78.079 570.137 77.715 569.53 76.875 569.53C76.0537 569.53 75.5964 570.202 75.5964 570.996V573.936H74.8217ZM82.0358 574.057C80.4958 574.057 79.5811 572.984 79.5811 571.5C79.5811 569.96 80.5611 568.905 82.0451 568.905C83.6598 568.905 84.3691 570.137 84.3691 571.444C84.3691 571.537 84.3598 571.584 84.3598 571.612H80.3558C80.4118 572.769 81.0558 573.432 82.0544 573.432C82.7918 573.432 83.2398 573.012 83.4731 572.545H84.2571C83.9491 573.404 83.1558 574.057 82.0358 574.057ZM80.3931 571.033H83.5571C83.4638 570.146 82.9878 569.512 82.0264 569.512C81.0931 569.512 80.5144 570.128 80.3931 571.033ZM85.0097 570.52V570.501C85.0097 569.586 85.8123 568.905 86.979 568.905C88.267 568.905 88.883 569.502 88.883 571.005L88.8737 572.956C88.8737 573.376 88.9017 573.702 88.9577 573.936H88.2577C88.2297 573.712 88.211 573.488 88.2017 573.208C87.8563 573.712 87.343 574.029 86.4843 574.029C85.467 574.029 84.7763 573.562 84.7763 572.676C84.7763 571.658 85.7097 571.313 86.9323 571.108C87.2963 571.052 87.7163 570.986 88.1457 570.949V570.893C88.1457 569.932 87.8003 569.512 86.9417 569.512C86.1763 569.512 85.8123 569.885 85.747 570.52H85.0097ZM88.1643 571.742V571.584C88.1643 571.546 88.1643 571.518 88.1737 571.49C88.0523 571.518 87.9217 571.528 87.8003 571.546L86.8577 571.696C85.971 571.836 85.5697 572.097 85.5697 572.657C85.5697 573.189 86.0083 573.497 86.6803 573.497C87.6323 573.497 88.1643 572.872 88.1643 571.742ZM89.9257 573.936V569.773C89.9257 569.549 89.9257 569.26 89.9163 569.036H90.6537V569.829C90.8217 569.316 91.335 568.924 91.895 568.924C91.9417 568.924 91.9977 568.924 92.0443 568.933V569.67C91.9697 569.652 91.8297 569.642 91.727 569.642C90.971 569.642 90.7003 570.277 90.7003 571.257V573.936H89.9257ZM92.8384 573.936V569.614H92.1944V569.036H92.8384V568.625C92.8384 567.738 93.2024 567.206 94.1077 567.206C94.229 567.206 94.3317 567.216 94.4437 567.234V567.86C94.3784 567.85 94.285 567.841 94.2197 567.841C93.865 567.841 93.613 568.018 93.613 568.448V569.036H94.4437V569.614H93.613V573.936H92.8384ZM94.985 573.936V569.773C94.985 569.549 94.985 569.26 94.9756 569.036H95.713V569.829C95.881 569.316 96.3943 568.924 96.9543 568.924C97.001 568.924 97.057 568.924 97.1036 568.933V569.67C97.029 569.652 96.889 569.642 96.7863 569.642C96.0303 569.642 95.7596 570.277 95.7596 571.257V573.936H94.985ZM97.6737 568.205V567.262H98.467V568.205H97.6737ZM97.6924 573.936V569.036H98.4484V573.936H97.6924ZM101.689 574.057C100.149 574.057 99.2343 572.984 99.2343 571.5C99.2343 569.96 100.214 568.905 101.698 568.905C103.313 568.905 104.022 570.137 104.022 571.444C104.022 571.537 104.013 571.584 104.013 571.612H100.009C100.065 572.769 100.709 573.432 101.708 573.432C102.445 573.432 102.893 573.012 103.126 572.545H103.91C103.602 573.404 102.809 574.057 101.689 574.057ZM100.046 571.033H103.21C103.117 570.146 102.641 569.512 101.68 569.512C100.746 569.512 100.168 570.128 100.046 571.033ZM104.784 573.936V569.773C104.784 569.549 104.784 569.26 104.775 569.036H105.54V569.736C105.792 569.325 106.296 568.905 107.136 568.905C108.256 568.905 108.816 569.633 108.816 570.874V573.936H108.042V571.117C108.042 570.137 107.678 569.53 106.838 569.53C106.016 569.53 105.559 570.202 105.559 570.996V573.936H104.784ZM111.849 574.057C110.514 574.057 109.553 573.114 109.553 571.481C109.553 569.969 110.505 568.905 111.793 568.905C112.698 568.905 113.23 569.334 113.51 569.792C113.501 569.456 113.501 569.026 113.501 568.709V567.262H114.276V573.936H113.557V573.189C113.268 573.628 112.698 574.057 111.849 574.057ZM111.961 573.432C112.978 573.432 113.52 572.666 113.52 571.481C113.52 570.342 112.978 569.54 111.961 569.54C110.962 569.54 110.393 570.342 110.393 571.481C110.393 572.666 110.953 573.432 111.961 573.432ZM117.009 574.048C115.936 574.048 115.18 573.581 114.974 572.452H115.73C115.908 573.077 116.29 573.441 117.028 573.441C117.7 573.441 118.157 573.114 118.157 572.629C118.157 572.144 117.756 572.004 117.121 571.826L116.542 571.668C115.758 571.453 115.152 571.164 115.152 570.324C115.152 569.446 115.908 568.905 116.972 568.905C117.961 568.905 118.67 569.334 118.82 570.324H118.092C117.952 569.838 117.597 569.512 116.953 569.512C116.281 569.512 115.926 569.82 115.926 570.221C115.926 570.706 116.365 570.856 116.906 571.014L117.522 571.192C118.362 571.434 118.913 571.761 118.913 572.536C118.913 573.497 118.12 574.048 117.009 574.048ZM119.548 573.936V572.9H120.369V573.936H119.548ZM123.347 574.057C121.854 574.057 120.902 573.049 120.902 571.472C120.902 569.922 121.91 568.905 123.356 568.905C124.672 568.905 125.382 569.67 125.643 570.632H124.878C124.663 570.053 124.224 569.53 123.356 569.53C122.311 569.53 121.695 570.352 121.695 571.481C121.695 572.657 122.274 573.432 123.356 573.432C124.196 573.432 124.626 572.974 124.878 572.386H125.634C125.354 573.32 124.598 574.057 123.347 574.057ZM128.479 574.057C126.911 574.057 126.015 572.993 126.015 571.49C126.015 569.997 126.967 568.905 128.498 568.905C130.019 568.905 130.98 569.997 130.98 571.49C130.98 572.993 130.047 574.057 128.479 574.057ZM128.479 573.432C129.543 573.432 130.14 572.648 130.14 571.481C130.14 570.352 129.534 569.53 128.479 569.53C127.415 569.53 126.808 570.352 126.808 571.481C126.808 572.648 127.406 573.432 128.479 573.432ZM131.766 573.936V569.773C131.766 569.549 131.766 569.26 131.756 569.036H132.522V569.736C132.774 569.325 133.268 568.905 134.09 568.905C134.827 568.905 135.312 569.232 135.555 569.81C135.779 569.465 136.246 568.905 137.291 568.905C138.411 568.905 138.943 569.633 138.943 570.874V573.936H138.168V571.117C138.168 570.137 137.832 569.53 136.992 569.53C136.19 569.53 135.742 570.174 135.742 570.94V573.936H134.967V571.117C134.967 570.137 134.631 569.53 133.791 569.53C132.97 569.53 132.54 570.202 132.54 570.996V573.936H131.766Z" fill="black"/>
<path d="M51.332 330.869C51.332 320.56 59.6894 312.202 69.9987 312.202H264.132C274.441 312.202 282.799 320.56 282.799 330.869V516.602H51.332V330.869Z" fill="black"/>
<path fill-rule="evenodd" clip-rule="evenodd" d="M167.066 344.402L103.43 397.965V484.402H230.702V397.965L167.066 344.402Z" fill="#37AAFA"/>
<path d="M161.521 421.244H150.836L158.348 428.757" stroke="black" stroke-width="3.73333" stroke-linecap="square" stroke-linejoin="bevel"/>
<path d="M143.705 449.72C160.501 457.023 180.033 449.329 187.336 432.533" stroke="black" stroke-width="3.73333" stroke-linecap="square" stroke-linejoin="bevel"/>
<circle cx="138.748" cy="415.977" r="3.5" fill="black"/>
<circle cx="195.385" cy="415.977" r="3.5" fill="black"/>
<circle cx="32.666" cy="592.202" r="14" fill="#CCFF9A"/>
<path d="M24.9901 597.069V587.059H27.9861C28.4901 587.059 28.6161 587.059 29.0501 587.073C31.2481 587.143 32.5081 588.333 32.5081 590.265C32.5081 591.329 32.1161 592.239 31.3741 592.799C30.4501 593.499 29.1901 593.499 28.1261 593.499H27.2861V597.069H24.9901ZM27.2861 591.623H28.4481C29.5541 591.623 30.1981 591.217 30.1981 590.307C30.1981 589.425 29.6521 589.005 28.4061 589.005H27.2861V591.623ZM33.9315 597.069V587.059H36.2275V595.095H40.4275V597.069H33.9315Z" fill="black"/>
<circle cx="135.801" cy="32.2119" r="14" fill="white"/>
<path d="M128.323 37.0786V27.0686H134.903V29.0286H130.591V31.0586H134.553V32.9906H130.591V35.1186H134.959V37.0786H128.323ZM136.745 37.0786V27.0686H143.213V29.0286H139.041V31.0586H142.919V32.9906H139.041V37.0786H136.745Z" fill="black"/>
<circle cx="111.533" cy="51.3357" r="14" fill="white"/>
<path d="M103.857 56.2024V46.1924H106.853C107.357 46.1924 107.483 46.1924 107.917 46.2064C110.115 46.2764 111.375 47.4664 111.375 49.3984C111.375 50.4624 110.983 51.3724 110.241 51.9324C109.317 52.6324 108.057 52.6324 106.993 52.6324H106.153V56.2024H103.857ZM106.153 50.7564H107.315C108.421 50.7564 109.065 50.3504 109.065 49.4404C109.065 48.5584 108.519 48.1384 107.273 48.1384H106.153V50.7564ZM112.799 56.2024V46.1924H115.095V54.2284H119.295V56.2024H112.799Z" fill="black"/>
<circle cx="238.467" cy="51.3357" r="14" fill="white"/>
<path d="M228.889 56.2024V46.1924H231.185V50.0564H234.825V46.1924H237.121V56.2024H234.825V52.0304H231.185V56.2024H228.889ZM239.361 56.2024V46.1924H241.853C242.231 46.1924 242.917 46.1924 243.295 46.2064C246.263 46.3184 248.167 48.0964 248.167 51.1624C248.167 52.8844 247.383 54.6904 246.137 55.3624C245.003 56.1464 243.673 56.2024 241.825 56.2024H239.361ZM241.657 54.2564H242.441C243.029 54.2564 243.533 54.2004 243.939 54.0744C245.115 53.7244 245.745 52.8144 245.745 51.1764C245.745 49.6364 245.101 48.6844 243.939 48.3064C243.561 48.1804 243.113 48.1244 242.581 48.1244H241.657V54.2564Z" fill="black"/>
<circle cx="214.199" cy="32.2119" r="14" fill="white"/>
<path d="M203.782 37.0786C204.664 34.6706 206.162 30.7366 207.618 27.0686H210.376C211.58 30.2746 212.938 33.9146 214.114 37.0786H211.706C211.412 36.2806 211.118 35.5246 210.824 34.7126H207.044L206.148 37.0786H203.782ZM207.66 32.8926H210.194C209.676 31.2546 209.298 30.1906 208.934 28.9726H208.906C208.556 30.2186 208.094 31.5766 207.66 32.8926ZM219.011 37.2606C216.253 37.2606 214.349 35.1606 214.349 32.0666C214.349 28.9726 216.365 26.8866 219.487 26.8866C221.909 26.8866 223.617 28.1746 224.247 30.3166L221.741 30.3306C221.321 29.3646 220.579 28.8046 219.445 28.8046C217.751 28.8046 216.743 30.1206 216.743 32.0386C216.743 34.0266 217.765 35.3286 219.501 35.3286C221.041 35.3286 221.741 34.4606 221.979 33.4106C221.531 33.4246 221.153 33.4246 220.691 33.4246H218.899V31.5626H224.247V37.0786H222.105V36.5466C222.105 36.3226 222.119 36.1266 222.119 35.9866H222.105C221.545 36.6866 220.453 37.2606 219.011 37.2606Z" fill="black"/>
<circle cx="174.999" cy="42.0023" r="23.3333" fill="black"/>
<path d="M159.59 47.4468V37.4368H162.236C162.698 37.4368 163.132 37.4368 163.552 37.4508C165.652 37.5208 166.828 38.3468 166.828 40.0128C166.828 41.1888 166.058 41.9168 164.994 42.1688C166.086 42.3088 167.178 42.9948 167.178 44.5908C167.178 46.3408 166.072 47.0968 164.532 47.3488C164.098 47.4188 163.566 47.4468 163.034 47.4468H159.59ZM161.844 41.4688H162.712C163.958 41.4688 164.574 41.2168 164.574 40.3208C164.574 39.4668 163.93 39.2708 162.88 39.2708H161.844V41.4688ZM161.844 45.6128H162.67C164.014 45.6128 164.882 45.4168 164.882 44.3668C164.882 43.4568 164.14 43.1768 163.062 43.1768H161.844V45.6128ZM168.818 47.4468V37.4368H175.286V39.3968H171.114V41.4268H174.992V43.3588H171.114V47.4468H168.818ZM176.857 47.4468V37.4368H183.325V39.3968H179.153V41.4268H183.031V43.3588H179.153V47.4468H176.857ZM187.644 47.6708C185.376 47.6708 184.2 46.8308 183.976 45.0388H186.23C186.37 45.7528 186.86 46.1168 187.672 46.1168C188.344 46.1168 188.834 45.8508 188.834 45.4308C188.834 45.0248 188.442 44.8568 187.602 44.6328L186.664 44.3808C185.068 43.9468 184.242 43.4288 184.242 42.1408C184.242 40.7688 185.446 39.8448 187.546 39.8448C189.422 39.8448 190.752 40.6148 190.906 42.2248H188.778C188.61 41.6928 188.19 41.3708 187.476 41.3708C186.818 41.3708 186.454 41.6228 186.454 42.0008C186.454 42.4768 186.93 42.5888 187.952 42.8548L188.442 42.9808C190.36 43.4708 191.088 44.0028 191.088 45.2908C191.088 46.7608 189.814 47.6708 187.644 47.6708Z" fill="white"/>
</g>
<defs>
<clipPath id="clip0_1_727">
<rect width="350" height="700" rx="28" fill="white"/>
</clipPath>
</defs>
</svg>
