<svg width="678" height="1004" viewBox="0 0 678 1004" fill="none" xmlns="http://www.w3.org/2000/svg">
<path d="M324 29.25L510.437 2.82372C598.249 -9.62303 676.75 58.5355 676.75 147.225V147.225C676.75 236.277 597.639 304.539 509.547 291.498L167.439 240.852C79.8812 227.89 1.25 295.738 1.25 384.25V384.25C1.25 472.762 79.881 540.61 167.439 527.648L510.066 476.926C597.885 463.925 676.75 531.975 676.75 620.75V620.75C676.75 709.525 597.885 777.575 510.067 764.574L167.957 713.929C80.1261 700.927 1.25 768.986 1.25 857.773V857.773C1.25 946.2 79.5179 1014.16 167.069 1001.75L354 975.25" stroke="black" stroke-dasharray="10 5"/>
</svg>
