<svg width="346" height="709" viewBox="0 0 346 709" fill="none" xmlns="http://www.w3.org/2000/svg">
<path d="M165.6 14.916L227.526 2.57526C288.574 -9.59045 345.5 37.1107 345.5 99.3587V99.3587C345.5 161.949 287.982 208.729 226.705 195.975L118.932 173.544C58.0999 160.883 1 207.322 1 269.457V269.457C1 331.592 58.1 378.032 118.932 365.371L227.217 342.833C288.23 330.134 345.5 376.712 345.5 439.032V439.032C345.5 501.352 288.23 547.929 227.217 535.231L119.443 512.799C58.3475 500.083 1 546.724 1 609.129V609.129C1 671.192 57.7573 717.754 118.624 705.625L180.9 693.214" stroke="black" stroke-dasharray="5.1 2.55"/>
</svg>
