<svg width="376" height="750" viewBox="0 0 376 750" fill="none" xmlns="http://www.w3.org/2000/svg">
<g clip-path="url(#clip0_1_637)">
<rect x="0.5" width="375" height="750" rx="30" fill="white"/>
<rect x="0.5" width="375" height="90.0049" fill="#E9E9E9"/>
<path d="M156.414 211.498V205.088H154.414V204.348H159.264V205.088H157.264V211.498H156.414ZM161.385 211.628C159.705 211.628 158.745 210.488 158.745 208.878C158.745 207.278 159.765 206.108 161.405 206.108C163.035 206.108 164.065 207.278 164.065 208.878C164.065 210.488 163.065 211.628 161.385 211.628ZM161.385 210.958C162.525 210.958 163.165 210.118 163.165 208.868C163.165 207.658 162.515 206.778 161.385 206.778C160.245 206.778 159.595 207.658 159.595 208.868C159.595 210.118 160.235 210.958 161.385 210.958ZM167.017 211.628C165.587 211.628 164.557 210.618 164.557 208.868C164.557 207.248 165.577 206.108 166.957 206.108C167.927 206.108 168.497 206.568 168.797 207.058C168.787 206.698 168.787 206.238 168.787 205.898V204.348H169.617V211.498H168.847V210.698C168.537 211.168 167.927 211.628 167.017 211.628ZM167.137 210.958C168.227 210.958 168.807 210.138 168.807 208.868C168.807 207.648 168.227 206.788 167.137 206.788C166.067 206.788 165.457 207.648 165.457 208.868C165.457 210.138 166.057 210.958 167.137 210.958ZM170.685 207.838V207.818C170.685 206.838 171.545 206.108 172.795 206.108C174.175 206.108 174.835 206.748 174.835 208.358L174.825 210.448C174.825 210.898 174.855 211.248 174.915 211.498H174.165C174.135 211.258 174.115 211.018 174.105 210.718C173.735 211.258 173.185 211.598 172.265 211.598C171.175 211.598 170.435 211.098 170.435 210.148C170.435 209.058 171.435 208.688 172.745 208.468C173.135 208.408 173.585 208.338 174.045 208.298V208.238C174.045 207.208 173.675 206.758 172.755 206.758C171.935 206.758 171.545 207.158 171.475 207.838H170.685ZM174.065 209.148V208.978C174.065 208.938 174.065 208.908 174.075 208.878C173.945 208.908 173.805 208.918 173.675 208.938L172.665 209.098C171.715 209.248 171.285 209.528 171.285 210.128C171.285 210.698 171.755 211.028 172.475 211.028C173.495 211.028 174.065 210.358 174.065 209.148ZM176.525 213.298L177.255 211.528C176.655 209.938 175.865 207.898 175.235 206.248H176.165C176.745 207.918 177.325 209.518 177.695 210.548C178.015 209.678 178.835 207.488 179.265 206.248H180.125C179.205 208.568 178.335 210.898 177.355 213.298H176.525ZM184.814 211.648C182.854 211.648 182.344 210.038 182.344 207.938C182.344 206.038 182.794 204.208 184.814 204.208C186.834 204.208 187.294 206.038 187.294 207.938C187.294 210.038 186.774 211.648 184.814 211.648ZM184.814 210.968C186.074 210.968 186.384 209.688 186.384 207.928C186.384 206.308 186.114 204.898 184.814 204.898C183.514 204.898 183.254 206.308 183.254 207.928C183.254 209.688 183.574 210.968 184.814 210.968ZM190.568 211.648C188.878 211.648 188.058 210.528 188.058 208.028C188.058 205.248 188.978 204.208 190.628 204.208C191.998 204.208 192.668 205.068 192.858 206.178H191.978C191.878 205.608 191.528 204.888 190.588 204.888C189.378 204.888 188.968 205.898 188.938 207.858C189.248 207.358 189.798 206.908 190.788 206.908C192.108 206.908 192.998 207.828 192.998 209.228C192.998 210.708 191.998 211.648 190.568 211.648ZM190.548 210.978C191.538 210.978 192.108 210.278 192.108 209.278C192.108 208.248 191.568 207.568 190.568 207.568C189.578 207.568 189.038 208.188 189.038 209.218C189.038 210.258 189.548 210.978 190.548 210.978ZM193.783 207.708V206.598H194.663V207.708H193.783ZM193.783 211.498V210.388H194.663V211.498H193.783ZM197.74 211.648C196.26 211.648 195.46 210.898 195.31 209.438H196.2C196.33 210.548 196.91 210.968 197.75 210.968C198.68 210.968 199.26 210.308 199.26 209.428C199.26 208.348 198.49 207.948 197.52 207.948H197.26V207.298H197.31C198.36 207.298 198.91 206.968 198.91 206.048C198.91 205.278 198.36 204.898 197.74 204.898C197.05 204.898 196.5 205.268 196.45 206.118H195.62C195.64 204.968 196.51 204.208 197.77 204.208C199.03 204.208 199.81 204.918 199.81 205.918C199.81 206.818 199.35 207.288 198.56 207.548C199.46 207.728 200.17 208.338 200.17 209.438C200.17 210.738 199.25 211.648 197.74 211.648ZM200.792 211.498V210.778C201.382 210.248 202.192 209.528 202.842 208.958C204.102 207.838 204.462 207.128 204.462 206.318C204.462 205.488 203.952 204.908 203.082 204.908C202.182 204.908 201.652 205.488 201.612 206.598H200.762C200.762 205.188 201.642 204.208 203.122 204.208C204.602 204.208 205.382 205.048 205.382 206.268C205.382 207.778 204.152 208.818 203.052 209.748C202.862 209.908 202.582 210.128 201.772 210.758H205.432V211.498H200.792ZM208.644 211.498V204.348H210.694C211.284 204.348 211.834 204.418 212.264 204.638C212.844 204.938 213.224 205.488 213.224 206.408C213.224 207.138 212.954 207.678 212.494 208.018C212.044 208.358 211.414 208.508 210.644 208.508H209.494V211.498H208.644ZM209.494 207.788H210.654C211.594 207.788 212.304 207.408 212.304 206.408C212.304 205.498 211.744 205.068 210.594 205.068H209.494V207.788ZM214.065 211.498V204.348H215.535L216.835 208.618C216.985 209.118 217.245 210.078 217.435 210.678H217.445C217.645 210.078 217.935 209.028 218.095 208.548L219.465 204.348H220.855V211.498H220.005V207.878C220.005 207.118 220.035 205.548 220.035 204.968H220.025C219.895 205.398 219.445 206.898 219.145 207.798L217.915 211.498H216.835L215.415 206.788C215.185 206.028 215.045 205.448 214.905 204.968H214.895C214.905 205.548 214.915 206.498 214.915 207.488V211.498H214.065Z" fill="black"/>
<path d="M55.5 418H70.5L55.5 433V418Z" fill="#E9E9E9"/>
<path d="M55.5 384C55.5 372.954 64.4543 364 75.5 364H266.5C277.546 364 286.5 372.954 286.5 384V398C286.5 409.046 277.546 418 266.5 418H55.5V384Z" fill="#E9E9E9"/>
<path d="M81.58 398.28C78.58 398.28 76.56 396.74 76.26 393.94H77.96C78.24 395.82 79.48 396.92 81.62 396.92C83.68 396.92 84.94 395.9 84.94 394.3C84.94 392.54 83.22 391.98 81.62 391.46L80.76 391.18C78.36 390.4 76.78 389.4 76.78 387.16C76.78 384.92 78.58 383.42 81.58 383.42C84.48 383.42 86.18 384.84 86.44 387.4H84.78C84.46 385.62 83.36 384.76 81.52 384.76C79.66 384.76 78.54 385.6 78.54 386.98C78.54 388.56 79.88 389.16 81.6 389.72L82.58 390.04C84.92 390.8 86.72 391.72 86.72 394.08C86.72 396.72 84.64 398.28 81.58 398.28ZM90.3927 398C89.1927 394.12 88.6927 392.44 87.1527 387.5H88.9527L90.5127 392.94C90.7927 393.94 90.9527 394.46 91.5327 396.64H91.5727C91.9127 395.18 92.2527 394 92.6327 392.5L93.9127 387.5H95.9727L97.1127 392.26C97.4127 393.52 97.7527 395 98.1527 396.62H98.1927C98.5927 395.12 99.0727 393.64 99.5527 392.02L100.893 387.5H102.553C101.653 390.26 100.233 394.8 99.2327 398H97.0127L96.0127 393.94C95.6127 392.3 95.1327 390.12 94.9327 389.16H94.8727C94.5927 390.34 94.0927 392.54 93.6927 394.02L92.6127 398H90.3927ZM108.126 398.26C104.826 398.26 102.866 395.96 102.866 392.78C102.866 389.48 104.966 387.22 108.146 387.22C111.606 387.22 113.126 389.86 113.126 392.66C113.126 392.86 113.106 392.96 113.106 393.02H104.526C104.646 395.5 106.026 396.92 108.166 396.92C109.746 396.92 110.706 396.02 111.206 395.02H112.886C112.226 396.86 110.526 398.26 108.126 398.26ZM104.606 391.78H111.386C111.186 389.88 110.166 388.52 108.106 388.52C106.106 388.52 104.866 389.84 104.606 391.78ZM119.299 398.26C115.999 398.26 114.039 395.96 114.039 392.78C114.039 389.48 116.139 387.22 119.319 387.22C122.779 387.22 124.299 389.86 124.299 392.66C124.299 392.86 124.279 392.96 124.279 393.02H115.699C115.819 395.5 117.199 396.92 119.339 396.92C120.919 396.92 121.879 396.02 122.379 395.02H124.059C123.399 396.86 121.699 398.26 119.299 398.26ZM115.779 391.78H122.559C122.359 389.88 121.339 388.52 119.279 388.52C117.279 388.52 116.039 389.84 115.779 391.78ZM129.113 398.2C127.373 398.2 126.233 397.6 126.233 395.58V388.74H124.613V387.5H126.233V384.66H127.873V387.5H129.873V388.74H127.873V395.44C127.873 396.5 128.373 396.94 129.353 396.94C129.453 396.94 129.513 396.94 129.673 396.92V398.16C129.493 398.18 129.293 398.2 129.113 398.2ZM130.084 400.42L131.384 395.78H133.124L131.504 400.42H130.084ZM140.475 398C139.275 394.12 138.775 392.44 137.235 387.5H139.035L140.595 392.94C140.875 393.94 141.035 394.46 141.615 396.64H141.655C141.995 395.18 142.335 394 142.715 392.5L143.995 387.5H146.055L147.195 392.26C147.495 393.52 147.835 395 148.235 396.62H148.275C148.675 395.12 149.155 393.64 149.635 392.02L150.975 387.5H152.635C151.735 390.26 150.315 394.8 149.315 398H147.095L146.095 393.94C145.695 392.3 145.215 390.12 145.015 389.16H144.955C144.675 390.34 144.175 392.54 143.775 394.02L142.695 398H140.475ZM158.209 398.26C154.909 398.26 152.949 395.96 152.949 392.78C152.949 389.48 155.049 387.22 158.229 387.22C161.689 387.22 163.209 389.86 163.209 392.66C163.209 392.86 163.189 392.96 163.189 393.02H154.609C154.729 395.5 156.109 396.92 158.249 396.92C159.829 396.92 160.789 396.02 161.289 395.02H162.969C162.309 396.86 160.609 398.26 158.209 398.26ZM154.689 391.78H161.469C161.269 389.88 160.249 388.52 158.189 388.52C156.189 388.52 154.949 389.84 154.689 391.78ZM163.655 388.34L164.955 383.7H166.695L165.075 388.34H163.655ZM168.123 398V383.7H169.783V398H168.123ZM172.187 398V383.7H173.847V398H172.187ZM180.548 398V383.7H182.208V387.06C182.208 387.7 182.188 388.48 182.168 389C182.708 388.12 183.788 387.22 185.588 387.22C187.988 387.22 189.188 388.78 189.188 391.44V398H187.528V391.96C187.528 389.86 186.748 388.56 184.948 388.56C183.188 388.56 182.208 390 182.208 391.7V398H180.548ZM196.006 398.26C192.706 398.26 190.746 395.96 190.746 392.78C190.746 389.48 192.846 387.22 196.026 387.22C199.486 387.22 201.006 389.86 201.006 392.66C201.006 392.86 200.986 392.96 200.986 393.02H192.406C192.526 395.5 193.906 396.92 196.046 396.92C197.626 396.92 198.586 396.02 199.086 395.02H200.766C200.106 396.86 198.406 398.26 196.006 398.26ZM192.486 391.78H199.266C199.066 389.88 198.046 388.52 195.986 388.52C193.986 388.52 192.746 389.84 192.486 391.78ZM202.379 390.68V390.64C202.379 388.68 204.099 387.22 206.599 387.22C209.359 387.22 210.679 388.5 210.679 391.72L210.659 395.9C210.659 396.8 210.719 397.5 210.839 398H209.339C209.279 397.52 209.239 397.04 209.219 396.44C208.479 397.52 207.379 398.2 205.539 398.2C203.359 398.2 201.879 397.2 201.879 395.3C201.879 393.12 203.879 392.38 206.499 391.94C207.279 391.82 208.179 391.68 209.099 391.6V391.48C209.099 389.42 208.359 388.52 206.519 388.52C204.879 388.52 204.099 389.32 203.959 390.68H202.379ZM209.139 393.3V392.96C209.139 392.88 209.139 392.82 209.159 392.76C208.899 392.82 208.619 392.84 208.359 392.88L206.339 393.2C204.439 393.5 203.579 394.06 203.579 395.26C203.579 396.4 204.519 397.06 205.959 397.06C207.999 397.06 209.139 395.72 209.139 393.3ZM217.133 398.26C214.273 398.26 212.213 396.24 212.213 392.74C212.213 389.5 214.253 387.22 217.013 387.22C218.953 387.22 220.093 388.14 220.693 389.12C220.673 388.4 220.673 387.48 220.673 386.8V383.7H222.333V398H220.793V396.4C220.173 397.34 218.953 398.26 217.133 398.26ZM217.373 396.92C219.553 396.92 220.713 395.28 220.713 392.74C220.713 390.3 219.553 388.58 217.373 388.58C215.233 388.58 214.013 390.3 214.013 392.74C214.013 395.28 215.213 396.92 217.373 396.92ZM233.588 398.26C230.228 398.26 228.308 395.98 228.308 392.76C228.308 389.56 230.348 387.22 233.628 387.22C236.888 387.22 238.948 389.56 238.948 392.76C238.948 395.98 236.948 398.26 233.588 398.26ZM233.588 396.92C235.868 396.92 237.148 395.24 237.148 392.74C237.148 390.32 235.848 388.56 233.588 388.56C231.308 388.56 230.008 390.32 230.008 392.74C230.008 395.24 231.288 396.92 233.588 396.92ZM243.037 398C241.777 394.6 240.417 390.86 239.137 387.5H240.997L242.917 393.04C243.397 394.42 243.597 394.92 244.077 396.44H244.117C244.577 394.98 244.877 394.28 245.397 392.8L247.257 387.5H248.957L244.957 398H243.037ZM254.37 398.26C251.07 398.26 249.11 395.96 249.11 392.78C249.11 389.48 251.21 387.22 254.39 387.22C257.85 387.22 259.37 389.86 259.37 392.66C259.37 392.86 259.35 392.96 259.35 393.02H250.77C250.89 395.5 252.27 396.92 254.41 396.92C255.99 396.92 256.95 396.02 257.45 395.02H259.13C258.47 396.86 256.77 398.26 254.37 398.26ZM250.85 391.78H257.63C257.43 389.88 256.41 388.52 254.35 388.52C252.35 388.52 251.11 389.84 250.85 391.78ZM261.003 398V389.08C261.003 388.6 261.003 387.98 260.983 387.5H262.563V389.2C262.923 388.1 264.023 387.26 265.223 387.26C265.323 387.26 265.443 387.26 265.543 387.28V388.86C265.383 388.82 265.083 388.8 264.863 388.8C263.243 388.8 262.663 390.16 262.663 392.26V398H261.003Z" fill="black"/>
<circle cx="35.5" cy="417.502" r="15" fill="#F29EC2"/>
<path d="M29.6123 423.002V414.392H26.7773V412.277H34.9073V414.392H32.0723V423.002H29.6123ZM39.7423 423.197C37.1623 423.197 35.5273 421.892 35.4373 419.747H37.9573C38.1073 420.707 38.7373 421.217 39.8473 421.217C40.8373 421.217 41.4973 420.722 41.4973 419.972C41.4973 419.237 40.9423 419.057 39.7873 418.727L39.0523 418.517C37.1773 417.977 35.7373 417.287 35.7373 415.292C35.7373 413.387 37.3423 412.082 39.7873 412.082C42.1273 412.082 43.6873 413.237 43.7923 415.307H41.3323C41.1823 414.497 40.6723 414.032 39.6973 414.032C38.7973 414.032 38.3023 414.482 38.3023 415.112C38.3023 415.832 38.8123 416.057 39.6373 416.297L40.4623 416.537C42.5773 417.152 44.0323 417.812 44.0323 419.852C44.0323 421.907 42.3073 423.197 39.7423 423.197Z" fill="black"/>
<path d="M55.5 319H70.5L55.5 334V319Z" fill="#E9E9E9"/>
<path d="M55.5 261.498C55.5 250.452 64.4543 241.498 75.5 241.498H320.5C331.546 241.498 340.5 250.452 340.5 261.498V299.498C340.5 310.543 331.546 319.498 320.5 319.498H55.5V261.498Z" fill="#E9E9E9"/>
<path d="M79.18 275.498L76.16 261.198H78L79.68 269.998C80 271.658 80.2 272.378 80.42 274.058H80.48C80.76 272.458 80.98 271.658 81.36 270.018L83.4 261.198H85.94L87.84 269.858C88.12 271.178 88.24 271.678 88.66 273.998H88.7C88.96 272.538 89.22 271.518 89.54 269.838L91.22 261.198H92.94L89.8 275.498H87.42L85.74 267.678C85.28 265.518 84.94 264.078 84.62 262.458H84.58C84.3 263.878 83.68 266.498 83.28 268.258L81.64 275.498H79.18ZM98.3205 275.758C95.0205 275.758 93.0605 273.458 93.0605 270.278C93.0605 266.978 95.1605 264.718 98.3405 264.718C101.8 264.718 103.32 267.358 103.32 270.158C103.32 270.358 103.3 270.458 103.3 270.518H94.7205C94.8405 272.998 96.2205 274.418 98.3605 274.418C99.9405 274.418 100.9 273.518 101.4 272.518H103.08C102.42 274.358 100.72 275.758 98.3205 275.758ZM94.8005 269.278H101.58C101.38 267.378 100.36 266.018 98.3005 266.018C96.3005 266.018 95.0605 267.338 94.8005 269.278ZM103.767 265.838L105.067 261.198H106.807L105.187 265.838H103.767ZM107.884 275.498V266.578C107.884 266.098 107.884 265.478 107.864 264.998H109.444V266.698C109.804 265.598 110.904 264.758 112.104 264.758C112.204 264.758 112.324 264.758 112.424 264.778V266.358C112.264 266.318 111.964 266.298 111.744 266.298C110.124 266.298 109.544 267.658 109.544 269.758V275.498H107.884ZM117.835 275.758C114.535 275.758 112.575 273.458 112.575 270.278C112.575 266.978 114.675 264.718 117.855 264.718C121.315 264.718 122.835 267.358 122.835 270.158C122.835 270.358 122.815 270.458 122.815 270.518H114.235C114.355 272.998 115.735 274.418 117.875 274.418C119.455 274.418 120.415 273.518 120.915 272.518H122.595C121.935 274.358 120.235 275.758 117.835 275.758ZM114.315 269.278H121.095C120.895 267.378 119.875 266.018 117.815 266.018C115.815 266.018 114.575 267.338 114.315 269.278ZM128.765 275.498V261.198H130.425V264.558C130.425 265.198 130.405 265.978 130.385 266.498C130.925 265.618 132.005 264.718 133.805 264.718C136.205 264.718 137.405 266.278 137.405 268.938V275.498H135.745V269.458C135.745 267.358 134.965 266.058 133.165 266.058C131.405 266.058 130.425 267.498 130.425 269.198V275.498H128.765ZM144.244 275.758C140.884 275.758 138.964 273.478 138.964 270.258C138.964 267.058 141.004 264.718 144.284 264.718C147.544 264.718 149.604 267.058 149.604 270.258C149.604 273.478 147.604 275.758 144.244 275.758ZM144.244 274.418C146.524 274.418 147.804 272.738 147.804 270.238C147.804 267.818 146.504 266.058 144.244 266.058C141.964 266.058 140.664 267.818 140.664 270.238C140.664 272.738 141.944 274.418 144.244 274.418ZM151.286 279.098V264.998L152.906 265.018V266.638C153.506 265.678 154.726 264.718 156.606 264.718C159.486 264.718 161.406 266.938 161.406 270.178C161.406 273.558 159.346 275.758 156.486 275.758C154.746 275.758 153.546 274.918 152.906 274.018C152.926 274.578 152.946 275.498 152.946 276.698V279.098H151.286ZM156.246 274.418C158.406 274.418 159.606 272.778 159.606 270.238C159.606 267.798 158.386 266.058 156.246 266.058C154.066 266.058 152.906 267.798 152.906 270.238C152.906 272.778 154.066 274.418 156.246 274.418ZM163.103 279.098V264.998L164.723 265.018V266.638C165.323 265.678 166.543 264.718 168.423 264.718C171.303 264.718 173.223 266.938 173.223 270.178C173.223 273.558 171.163 275.758 168.303 275.758C166.563 275.758 165.363 274.918 164.723 274.018C164.743 274.578 164.763 275.498 164.763 276.698V279.098H163.103ZM168.063 274.418C170.223 274.418 171.423 272.778 171.423 270.238C171.423 267.798 170.203 266.058 168.063 266.058C165.883 266.058 164.723 267.798 164.723 270.238C164.723 272.778 165.883 274.418 168.063 274.418ZM174.88 263.218V261.198H176.58V263.218H174.88ZM174.92 275.498V264.998H176.54V275.498H174.92ZM178.945 275.498V266.578C178.945 266.098 178.945 265.478 178.925 264.998H180.565V266.498C181.105 265.618 182.185 264.718 183.985 264.718C186.385 264.718 187.585 266.278 187.585 268.938V275.498H185.925V269.458C185.925 267.358 185.145 266.058 183.345 266.058C181.585 266.058 180.605 267.498 180.605 269.198V275.498H178.945ZM194.163 279.278C191.643 279.278 190.023 277.598 189.543 275.838H191.243C191.583 276.798 192.363 277.938 194.303 277.938C196.623 277.938 197.683 276.278 197.683 273.678V272.998C197.103 274.038 195.903 275.018 194.023 275.018C191.063 275.018 189.203 272.858 189.203 269.898C189.203 266.778 191.263 264.718 194.043 264.718C195.923 264.718 197.043 265.558 197.683 266.518C197.683 266.118 197.663 265.518 197.663 264.998H199.303V273.418C199.303 276.918 197.723 279.278 194.163 279.278ZM194.343 273.678C196.203 273.678 197.683 272.258 197.683 269.818C197.683 267.598 196.403 266.078 194.343 266.078C192.243 266.078 191.003 267.638 191.003 269.878C191.003 272.038 192.203 273.678 194.343 273.678ZM205.899 263.218V261.198H207.599V263.218H205.899ZM205.939 275.498V264.998H207.559V275.498H205.939ZM209.963 275.498V266.578C209.963 266.098 209.963 265.478 209.943 264.998H211.583V266.498C212.123 265.618 213.203 264.718 215.003 264.718C217.403 264.718 218.603 266.278 218.603 268.938V275.498H216.943V269.458C216.943 267.358 216.163 266.058 214.363 266.058C212.603 266.058 211.623 267.498 211.623 269.198V275.498H209.963ZM228.205 275.698C226.465 275.698 225.325 275.098 225.325 273.078V266.238H223.705V264.998H225.325V262.158H226.965V264.998H228.965V266.238H226.965V272.938C226.965 273.998 227.465 274.438 228.445 274.438C228.545 274.438 228.605 274.438 228.765 274.418V275.658C228.585 275.678 228.385 275.698 228.205 275.698ZM230.356 275.498V261.198H232.016V264.558C232.016 265.198 231.996 265.978 231.976 266.498C232.516 265.618 233.596 264.718 235.396 264.718C237.796 264.718 238.996 266.278 238.996 268.938V275.498H237.336V269.458C237.336 267.358 236.556 266.058 234.756 266.058C232.996 266.058 232.016 267.498 232.016 269.198V275.498H230.356ZM245.815 275.758C242.515 275.758 240.555 273.458 240.555 270.278C240.555 266.978 242.655 264.718 245.835 264.718C249.295 264.718 250.815 267.358 250.815 270.158C250.815 270.358 250.795 270.458 250.795 270.518H242.215C242.335 272.998 243.715 274.418 245.855 274.418C247.435 274.418 248.395 273.518 248.895 272.518H250.575C249.915 274.358 248.215 275.758 245.815 275.758ZM242.295 269.278H249.075C248.875 267.378 247.855 266.018 245.795 266.018C243.795 266.018 242.555 267.338 242.295 269.278ZM256.745 275.498V261.198H258.405V264.558C258.405 265.198 258.385 265.978 258.365 266.498C258.905 265.618 259.985 264.718 261.785 264.718C264.185 264.718 265.385 266.278 265.385 268.938V275.498H263.725V269.458C263.725 267.358 262.945 266.058 261.145 266.058C259.385 266.058 258.405 267.498 258.405 269.198V275.498H256.745ZM272.224 275.758C268.864 275.758 266.944 273.478 266.944 270.258C266.944 267.058 268.984 264.718 272.264 264.718C275.524 264.718 277.584 267.058 277.584 270.258C277.584 273.478 275.584 275.758 272.224 275.758ZM272.224 274.418C274.504 274.418 275.784 272.738 275.784 270.238C275.784 267.818 274.484 266.058 272.224 266.058C269.944 266.058 268.644 267.818 268.644 270.238C268.644 272.738 269.924 274.418 272.224 274.418ZM282.409 275.698C280.669 275.698 279.529 275.098 279.529 273.078V266.238H277.909V264.998H279.529V262.158H281.169V264.998H283.169V266.238H281.169V272.938C281.169 273.998 281.669 274.438 282.649 274.438C282.749 274.438 282.809 274.438 282.969 274.418V275.658C282.789 275.678 282.589 275.698 282.409 275.698ZM291.883 275.698C290.143 275.698 289.003 275.098 289.003 273.078V266.238H287.383V264.998H289.003V262.158H290.643V264.998H292.643V266.238H290.643V272.938C290.643 273.998 291.143 274.438 292.123 274.438C292.223 274.438 292.283 274.438 292.443 274.418V275.658C292.263 275.678 292.063 275.698 291.883 275.698ZM297.474 275.778C295.054 275.778 293.914 274.218 293.914 271.558V264.998H295.574V271.058C295.574 273.118 296.334 274.438 298.114 274.438C299.834 274.438 300.734 272.978 300.734 271.318V264.998H302.394V273.898C302.394 274.438 302.394 274.958 302.414 275.498H300.774V274.058C300.274 274.898 299.294 275.778 297.474 275.778ZM309.997 275.758C308.177 275.758 306.957 274.838 306.337 273.898V275.498H304.797V261.198H306.457V264.258C306.457 264.938 306.457 265.898 306.437 266.618C307.037 265.658 308.237 264.718 310.117 264.718C312.997 264.718 314.917 266.938 314.917 270.178C314.917 273.558 312.857 275.758 309.997 275.758ZM309.757 274.418C311.917 274.418 313.117 272.778 313.117 270.238C313.117 267.798 311.897 266.058 309.757 266.058C307.577 266.058 306.417 267.798 306.417 270.238C306.417 272.778 307.577 274.418 309.757 274.418ZM77.06 287.218V285.198H78.76V287.218H77.06ZM77.1 299.498V288.998H78.72V299.498H77.1ZM81.1242 299.498V290.578C81.1242 290.098 81.1242 289.478 81.1042 288.998H82.7442V290.498C83.2842 289.618 84.3642 288.718 86.1642 288.718C88.5642 288.718 89.7642 290.278 89.7642 292.938V299.498H88.1042V293.458C88.1042 291.358 87.3242 290.058 85.5242 290.058C83.7642 290.058 82.7842 291.498 82.7842 293.198V299.498H81.1242ZM98.5406 299.498V288.558H95.1006V287.458C97.5606 287.398 98.6606 286.778 98.9006 285.198H100.221V299.498H98.5406ZM107.443 299.798C103.523 299.798 102.503 296.578 102.503 292.378C102.503 288.578 103.403 284.918 107.443 284.918C111.483 284.918 112.403 288.578 112.403 292.378C112.403 296.578 111.363 299.798 107.443 299.798ZM107.443 298.438C109.963 298.438 110.583 295.878 110.583 292.358C110.583 289.118 110.043 286.298 107.443 286.298C104.843 286.298 104.323 289.118 104.323 292.358C104.323 295.878 104.963 298.438 107.443 298.438ZM118.627 287.218V285.198H120.327V287.218H118.627ZM118.667 299.498V288.998H120.287V299.498H118.667ZM123.131 299.498V290.238H121.751V288.998H123.131V288.118C123.131 286.218 123.911 285.078 125.851 285.078C126.111 285.078 126.331 285.098 126.571 285.138V286.478C126.431 286.458 126.231 286.438 126.091 286.438C125.331 286.438 124.791 286.818 124.791 287.738V288.998H126.571V290.238H124.791V299.498H123.131ZM131.554 292.178V292.138C131.554 290.178 133.274 288.718 135.774 288.718C138.534 288.718 139.854 289.998 139.854 293.218L139.834 297.398C139.834 298.298 139.894 298.998 140.014 299.498H138.514C138.454 299.018 138.414 298.538 138.394 297.938C137.654 299.018 136.554 299.698 134.714 299.698C132.534 299.698 131.054 298.698 131.054 296.798C131.054 294.618 133.054 293.878 135.674 293.438C136.454 293.318 137.354 293.178 138.274 293.098V292.978C138.274 290.918 137.534 290.018 135.694 290.018C134.054 290.018 133.274 290.818 133.134 292.178H131.554ZM138.314 294.798V294.458C138.314 294.378 138.314 294.318 138.334 294.258C138.074 294.318 137.794 294.338 137.534 294.378L135.514 294.698C133.614 294.998 132.754 295.558 132.754 296.758C132.754 297.898 133.694 298.558 135.134 298.558C137.174 298.558 138.314 297.218 138.314 294.798ZM142.088 299.498V290.578C142.088 290.098 142.088 289.478 142.068 288.998H143.708V290.498C144.248 289.618 145.328 288.718 147.128 288.718C149.528 288.718 150.728 290.278 150.728 292.938V299.498H149.068V293.458C149.068 291.358 148.288 290.058 146.488 290.058C144.728 290.058 143.748 291.498 143.748 293.198V299.498H142.088ZM154.152 303.098L155.612 299.558C154.412 296.378 152.832 292.298 151.572 288.998H153.432C154.592 292.338 155.752 295.538 156.492 297.598C157.132 295.858 158.772 291.478 159.632 288.998H161.352C159.512 293.638 157.772 298.298 155.812 303.098H154.152ZM166.787 299.758C163.427 299.758 161.507 297.478 161.507 294.258C161.507 291.058 163.547 288.718 166.827 288.718C170.087 288.718 172.147 291.058 172.147 294.258C172.147 297.478 170.147 299.758 166.787 299.758ZM166.787 298.418C169.067 298.418 170.347 296.738 170.347 294.238C170.347 291.818 169.047 290.058 166.787 290.058C164.507 290.058 163.207 291.818 163.207 294.238C163.207 296.738 164.487 298.418 166.787 298.418ZM173.829 299.498V290.578C173.829 290.098 173.829 289.478 173.809 288.998H175.449V290.498C175.989 289.618 177.069 288.718 178.869 288.718C181.269 288.718 182.469 290.278 182.469 292.938V299.498H180.809V293.458C180.809 291.358 180.029 290.058 178.229 290.058C176.469 290.058 175.489 291.498 175.489 293.198V299.498H173.829ZM189.288 299.758C185.988 299.758 184.028 297.458 184.028 294.278C184.028 290.978 186.128 288.718 189.308 288.718C192.768 288.718 194.288 291.358 194.288 294.158C194.288 294.358 194.268 294.458 194.268 294.518H185.688C185.808 296.998 187.188 298.418 189.328 298.418C190.908 298.418 191.868 297.518 192.368 296.518H194.048C193.388 298.358 191.688 299.758 189.288 299.758ZM185.768 293.278H192.548C192.348 291.378 191.328 290.018 189.268 290.018C187.268 290.018 186.028 291.338 185.768 293.278ZM201.83 299.498C200.63 295.618 200.13 293.938 198.59 288.998H200.39L201.95 294.438C202.23 295.438 202.39 295.958 202.97 298.138H203.01C203.35 296.678 203.69 295.498 204.07 293.998L205.35 288.998H207.41L208.55 293.758C208.85 295.018 209.19 296.498 209.59 298.118H209.63C210.03 296.618 210.51 295.138 210.99 293.518L212.33 288.998H213.99C213.09 291.758 211.67 296.298 210.67 299.498H208.45L207.45 295.438C207.05 293.798 206.57 291.618 206.37 290.658H206.31C206.03 291.838 205.53 294.038 205.13 295.518L204.05 299.498H201.83ZM214.705 292.178V292.138C214.705 290.178 216.425 288.718 218.925 288.718C221.685 288.718 223.005 289.998 223.005 293.218L222.985 297.398C222.985 298.298 223.045 298.998 223.165 299.498H221.665C221.605 299.018 221.565 298.538 221.545 297.938C220.805 299.018 219.705 299.698 217.865 299.698C215.685 299.698 214.205 298.698 214.205 296.798C214.205 294.618 216.205 293.878 218.825 293.438C219.605 293.318 220.505 293.178 221.425 293.098V292.978C221.425 290.918 220.685 290.018 218.845 290.018C217.205 290.018 216.425 290.818 216.285 292.178H214.705ZM221.465 294.798V294.458C221.465 294.378 221.465 294.318 221.485 294.258C221.225 294.318 220.945 294.338 220.685 294.378L218.665 294.698C216.765 294.998 215.905 295.558 215.905 296.758C215.905 297.898 216.845 298.558 218.285 298.558C220.325 298.558 221.465 297.218 221.465 294.798ZM225.239 299.498V290.578C225.239 290.098 225.239 289.478 225.219 288.998H226.859V290.498C227.399 289.618 228.479 288.718 230.279 288.718C232.679 288.718 233.879 290.278 233.879 292.938V299.498H232.219V293.458C232.219 291.358 231.439 290.058 229.639 290.058C227.879 290.058 226.899 291.498 226.899 293.198V299.498H225.239ZM239.418 299.698C237.678 299.698 236.538 299.098 236.538 297.078V290.238H234.918V288.998H236.538V286.158H238.178V288.998H240.178V290.238H238.178V296.938C238.178 297.998 238.678 298.438 239.658 298.438C239.758 298.438 239.818 298.438 239.978 298.418V299.658C239.798 299.678 239.598 299.698 239.418 299.698ZM245.029 299.738C242.729 299.738 241.109 298.738 240.669 296.318H242.289C242.669 297.658 243.489 298.438 245.069 298.438C246.509 298.438 247.489 297.738 247.489 296.698C247.489 295.658 246.629 295.358 245.269 294.978L244.029 294.638C242.349 294.178 241.049 293.558 241.049 291.758C241.049 289.878 242.669 288.718 244.949 288.718C247.069 288.718 248.589 289.638 248.909 291.758H247.349C247.049 290.718 246.289 290.018 244.909 290.018C243.469 290.018 242.709 290.678 242.709 291.538C242.709 292.578 243.649 292.898 244.809 293.238L246.129 293.618C247.929 294.138 249.109 294.838 249.109 296.498C249.109 298.558 247.409 299.738 245.029 299.738ZM258.053 299.698C256.313 299.698 255.173 299.098 255.173 297.078V290.238H253.553V288.998H255.173V286.158H256.813V288.998H258.813V290.238H256.813V296.938C256.813 297.998 257.313 298.438 258.293 298.438C258.393 298.438 258.453 298.438 258.613 298.418V299.658C258.433 299.678 258.233 299.698 258.053 299.698ZM264.608 299.758C261.248 299.758 259.328 297.478 259.328 294.258C259.328 291.058 261.368 288.718 264.648 288.718C267.908 288.718 269.968 291.058 269.968 294.258C269.968 297.478 267.968 299.758 264.608 299.758ZM264.608 298.418C266.888 298.418 268.168 296.738 268.168 294.238C268.168 291.818 266.868 290.058 264.608 290.058C262.328 290.058 261.028 291.818 261.028 294.238C261.028 296.738 262.308 298.418 264.608 298.418ZM275.948 287.218V285.198H277.648V287.218H275.948ZM274.808 303.298C274.488 303.298 274.188 303.258 274.028 303.218V301.918C274.088 301.918 274.208 301.938 274.428 301.938C275.008 301.938 275.468 301.838 275.708 301.518C275.868 301.298 275.948 301.018 275.948 300.458V288.998H277.608V300.158C277.608 301.538 277.368 302.198 276.948 302.638C276.428 303.178 275.608 303.298 274.808 303.298ZM284.571 299.758C281.211 299.758 279.291 297.478 279.291 294.258C279.291 291.058 281.331 288.718 284.611 288.718C287.871 288.718 289.931 291.058 289.931 294.258C289.931 297.478 287.931 299.758 284.571 299.758ZM284.571 298.418C286.851 298.418 288.131 296.738 288.131 294.238C288.131 291.818 286.831 290.058 284.571 290.058C282.291 290.058 280.991 291.818 280.991 294.238C280.991 296.738 282.271 298.418 284.571 298.418ZM291.573 287.218V285.198H293.273V287.218H291.573ZM291.613 299.498V288.998H293.233V299.498H291.613ZM295.638 299.498V290.578C295.638 290.098 295.638 289.478 295.618 288.998H297.258V290.498C297.798 289.618 298.878 288.718 300.678 288.718C303.078 288.718 304.278 290.278 304.278 292.938V299.498H302.618V293.458C302.618 291.358 301.838 290.058 300.038 290.058C298.278 290.058 297.298 291.498 297.298 293.198V299.498H295.638ZM306.956 295.778C306.856 293.278 306.676 290.518 306.676 287.358V285.198H308.336V287.358C308.336 290.518 308.156 293.278 308.056 295.778H306.956ZM306.636 299.498V297.278H308.396V299.498H306.636Z" fill="black"/>
<circle cx="35.5" cy="319" r="15" fill="#CCFF9A"/>
<path d="M27.6692 324.5V313.775H30.8792C31.4192 313.775 31.5542 313.775 32.0192 313.79C34.3742 313.865 35.7242 315.14 35.7242 317.21C35.7242 318.35 35.3042 319.325 34.5092 319.925C33.5192 320.675 32.1692 320.675 31.0292 320.675H30.1292V324.5H27.6692ZM30.1292 318.665H31.3742C32.5592 318.665 33.2492 318.23 33.2492 317.255C33.2492 316.31 32.6642 315.86 31.3292 315.86H30.1292V318.665ZM37.2493 324.5V313.775H39.7093V322.385H44.2093V324.5H37.2493Z" fill="black"/>
<path d="M55.5 616H70.5L55.5 631V616Z" fill="#E9E9E9"/>
<path d="M55.5 582C55.5 570.954 64.4543 562 75.5 562H224.5C235.546 562 244.5 570.954 244.5 582V596C244.5 607.046 235.546 616 224.5 616H55.5V582Z" fill="#E9E9E9"/>
<path d="M83.54 596.28C79.36 596.28 76.46 593.28 76.46 588.86C76.46 584.48 79.4 581.42 83.64 581.42C86.94 581.42 89.22 583.06 90.14 586H88.4C87.72 584.2 86.32 582.86 83.62 582.86C80.26 582.86 78.3 585.32 78.3 588.84C78.3 592.34 80.26 594.84 83.64 594.84C86.3 594.84 87.62 593.44 88.36 591.86H90.12C89.12 594.56 86.82 596.28 83.54 596.28ZM96.2311 596.26C92.8711 596.26 90.9511 593.98 90.9511 590.76C90.9511 587.56 92.9911 585.22 96.2711 585.22C99.5311 585.22 101.591 587.56 101.591 590.76C101.591 593.98 99.5911 596.26 96.2311 596.26ZM96.2311 594.92C98.5111 594.92 99.7911 593.24 99.7911 590.74C99.7911 588.32 98.4911 586.56 96.2311 586.56C93.9511 586.56 92.6511 588.32 92.6511 590.74C92.6511 593.24 93.9311 594.92 96.2311 594.92ZM103.273 596V581.7H104.933V596H103.273ZM111.557 596.26C108.697 596.26 106.637 594.24 106.637 590.74C106.637 587.5 108.677 585.22 111.437 585.22C113.377 585.22 114.517 586.14 115.117 587.12C115.097 586.4 115.097 585.48 115.097 584.8V581.7H116.757V596H115.217V594.4C114.597 595.34 113.377 596.26 111.557 596.26ZM111.797 594.92C113.977 594.92 115.137 593.28 115.137 590.74C115.137 588.3 113.977 586.58 111.797 586.58C109.657 586.58 108.437 588.3 108.437 590.74C108.437 593.28 109.637 594.92 111.797 594.92ZM123.732 596V581.7H125.432V594.52H131.872V596H123.732ZM132.841 588.68V588.64C132.841 586.68 134.561 585.22 137.061 585.22C139.821 585.22 141.141 586.5 141.141 589.72L141.121 593.9C141.121 594.8 141.181 595.5 141.301 596H139.801C139.741 595.52 139.701 595.04 139.681 594.44C138.941 595.52 137.841 596.2 136.001 596.2C133.821 596.2 132.341 595.2 132.341 593.3C132.341 591.12 134.341 590.38 136.961 589.94C137.741 589.82 138.641 589.68 139.561 589.6V589.48C139.561 587.42 138.821 586.52 136.981 586.52C135.341 586.52 134.561 587.32 134.421 588.68H132.841ZM139.601 591.3V590.96C139.601 590.88 139.601 590.82 139.621 590.76C139.361 590.82 139.081 590.84 138.821 590.88L136.801 591.2C134.901 591.5 134.041 592.06 134.041 593.26C134.041 594.4 134.981 595.06 136.421 595.06C138.461 595.06 139.601 593.72 139.601 591.3ZM154.113 596.28C149.933 596.28 147.033 593.28 147.033 588.86C147.033 584.48 149.973 581.42 154.213 581.42C157.513 581.42 159.793 583.06 160.713 586H158.973C158.293 584.2 156.893 582.86 154.193 582.86C150.833 582.86 148.873 585.32 148.873 588.84C148.873 592.34 150.833 594.84 154.213 594.84C156.873 594.84 158.193 593.44 158.933 591.86H160.693C159.693 594.56 157.393 596.28 154.113 596.28ZM162.244 596V587.08C162.244 586.6 162.244 585.98 162.224 585.5H163.804V587.2C164.164 586.1 165.264 585.26 166.464 585.26C166.564 585.26 166.684 585.26 166.784 585.28V586.86C166.624 586.82 166.324 586.8 166.104 586.8C164.484 586.8 163.904 588.16 163.904 590.26V596H162.244ZM172.215 596.26C168.855 596.26 166.935 593.98 166.935 590.76C166.935 587.56 168.975 585.22 172.255 585.22C175.515 585.22 177.575 587.56 177.575 590.76C177.575 593.98 175.575 596.26 172.215 596.26ZM172.215 594.92C174.495 594.92 175.775 593.24 175.775 590.74C175.775 588.32 174.475 586.56 172.215 586.56C169.935 586.56 168.635 588.32 168.635 590.74C168.635 593.24 169.915 594.92 172.215 594.92ZM179.217 583.72V581.7H180.917V583.72H179.217ZM179.257 596V585.5H180.877V596H179.257ZM181.941 596C182.461 595.28 184.601 592.34 185.781 590.66L182.121 585.5H184.061C184.421 586.08 185.841 588.12 186.721 589.42C187.601 588.12 188.561 586.72 189.361 585.5H191.161C190.161 586.92 188.601 589.06 187.581 590.48C188.641 592.02 190.361 594.48 191.461 596H189.501L186.641 591.7C185.841 592.9 184.381 595.06 183.761 596H181.941ZM194.782 592.02C194.802 590.16 195.202 589.38 196.282 588.42C197.222 587.58 198.242 586.78 198.242 585.14C198.242 583.76 197.362 582.82 195.662 582.82C193.942 582.82 193.062 583.84 193.002 585.78H191.322C191.302 583.12 193.102 581.42 195.742 581.42C198.442 581.42 200.022 583 200.022 585.1C200.022 586.84 198.902 587.98 197.882 588.88C196.922 589.72 196.322 590.32 196.302 592.02H194.782ZM194.662 596V593.86H196.422V596H194.662ZM204.086 597.4H224.086V577.4H204.086V597.4Z" fill="black"/>
<circle cx="35.5" cy="616" r="15" fill="#CCFF9A"/>
<path d="M27.6692 621.5V610.775H30.8792C31.4192 610.775 31.5542 610.775 32.0192 610.79C34.3742 610.865 35.7242 612.14 35.7242 614.21C35.7242 615.35 35.3042 616.325 34.5092 616.925C33.5192 617.675 32.1692 617.675 31.0292 617.675H30.1292V621.5H27.6692ZM30.1292 615.665H31.3742C32.5592 615.665 33.2492 615.23 33.2492 614.255C33.2492 613.31 32.6642 612.86 31.3292 612.86H30.1292V615.665ZM37.2493 621.5V610.775H39.7093V619.385H44.2093V621.5H37.2493Z" fill="black"/>
<path d="M356 517H341L356 532V517Z" fill="#9AF3FF"/>
<path d="M86 483C86 471.954 94.9543 463 106 463H336C347.046 463 356 471.954 356 483V517H106C94.9543 517 86 508.046 86 497V483Z" fill="#9AF3FF"/>
<path d="M112.92 497.28C111.14 497.28 109.5 496.6 108.66 495.44C107.74 494.16 107.74 492.74 107.74 491.58V482.7H109.44V491.44C109.44 492.68 109.5 493.54 109.9 494.3C110.42 495.3 111.54 495.9 112.92 495.9C114.32 495.9 115.46 495.3 115.96 494.3C116.42 493.38 116.42 492.42 116.42 491.44V482.7H118.12V491.58C118.12 492.74 118.12 494.16 117.2 495.44C116.36 496.6 114.66 497.28 112.92 497.28ZM124.03 497.24C121.73 497.24 120.11 496.24 119.67 493.82H121.29C121.67 495.16 122.49 495.94 124.07 495.94C125.51 495.94 126.49 495.24 126.49 494.2C126.49 493.16 125.63 492.86 124.27 492.48L123.03 492.14C121.35 491.68 120.05 491.06 120.05 489.26C120.05 487.38 121.67 486.22 123.95 486.22C126.07 486.22 127.59 487.14 127.91 489.26H126.35C126.05 488.22 125.29 487.52 123.91 487.52C122.47 487.52 121.71 488.18 121.71 489.04C121.71 490.08 122.65 490.4 123.81 490.74L125.13 491.12C126.93 491.64 128.11 492.34 128.11 494C128.11 496.06 126.41 497.24 124.03 497.24ZM137.054 497.2C135.314 497.2 134.174 496.6 134.174 494.58V487.74H132.554V486.5H134.174V483.66H135.814V486.5H137.814V487.74H135.814V494.44C135.814 495.5 136.314 495.94 137.294 495.94C137.394 495.94 137.454 495.94 137.614 495.92V497.16C137.434 497.18 137.234 497.2 137.054 497.2ZM143.608 497.26C140.248 497.26 138.328 494.98 138.328 491.76C138.328 488.56 140.368 486.22 143.648 486.22C146.908 486.22 148.968 488.56 148.968 491.76C148.968 494.98 146.968 497.26 143.608 497.26ZM143.608 495.92C145.888 495.92 147.168 494.24 147.168 491.74C147.168 489.32 145.868 487.56 143.608 487.56C141.328 487.56 140.028 489.32 140.028 491.74C140.028 494.24 141.308 495.92 143.608 495.92ZM155.211 497.26C151.851 497.26 149.931 494.98 149.931 491.76C149.931 488.56 151.971 486.22 155.251 486.22C158.511 486.22 160.571 488.56 160.571 491.76C160.571 494.98 158.571 497.26 155.211 497.26ZM155.211 495.92C157.491 495.92 158.771 494.24 158.771 491.74C158.771 489.32 157.471 487.56 155.211 487.56C152.931 487.56 151.631 489.32 151.631 491.74C151.631 494.24 152.911 495.92 155.211 495.92ZM162.653 493.28C162.553 490.78 162.373 488.02 162.373 484.86V482.7H164.033V484.86C164.033 488.02 163.853 490.78 163.753 493.28H162.653ZM162.333 497V494.78H164.093V497H162.333ZM168.743 497L174.563 482.7H176.763L182.523 497H180.723L178.923 492.5H172.203L170.423 497H168.743ZM172.723 491.12H178.383L177.783 489.58C177.063 487.74 176.303 485.92 175.623 484.02H175.583C174.743 486.14 173.743 488.64 173.283 489.76L172.723 491.12ZM183.486 497V488.08C183.486 487.6 183.486 486.98 183.466 486.5H185.106V488C185.646 487.12 186.726 486.22 188.526 486.22C190.926 486.22 192.126 487.78 192.126 490.44V497H190.466V490.96C190.466 488.86 189.686 487.56 187.886 487.56C186.126 487.56 185.146 489 185.146 490.7V497H183.486ZM195.549 500.6L197.009 497.06C195.809 493.88 194.229 489.8 192.969 486.5H194.829C195.989 489.84 197.149 493.04 197.889 495.1C198.529 493.36 200.169 488.98 201.029 486.5H202.749C200.909 491.14 199.169 495.8 197.209 500.6H195.549ZM211.849 497.26C208.989 497.26 206.929 495.24 206.929 491.74C206.929 488.5 208.969 486.22 211.729 486.22C213.669 486.22 214.809 487.14 215.409 488.12C215.389 487.4 215.389 486.48 215.389 485.8V482.7H217.049V497H215.509V495.4C214.889 496.34 213.669 497.26 211.849 497.26ZM212.089 495.92C214.269 495.92 215.429 494.28 215.429 491.74C215.429 489.3 214.269 487.58 212.089 487.58C209.949 487.58 208.729 489.3 208.729 491.74C208.729 494.28 209.929 495.92 212.089 495.92ZM219.446 497V488.08C219.446 487.6 219.446 486.98 219.426 486.5H221.006V488.2C221.366 487.1 222.466 486.26 223.666 486.26C223.766 486.26 223.886 486.26 223.986 486.28V487.86C223.826 487.82 223.526 487.8 223.306 487.8C221.686 487.8 221.106 489.16 221.106 491.26V497H219.446ZM225.208 484.72V482.7H226.908V484.72H225.208ZM225.248 497V486.5H226.868V497H225.248ZM229.272 497V488.08C229.272 487.6 229.272 486.98 229.252 486.5H230.892V488C231.432 487.12 232.512 486.22 234.312 486.22C236.712 486.22 237.912 487.78 237.912 490.44V497H236.252V490.96C236.252 488.86 235.472 487.56 233.672 487.56C231.912 487.56 230.932 489 230.932 490.7V497H229.272ZM240.191 497V482.7H241.851V491.28C243.191 489.76 245.031 487.72 246.071 486.5H248.111C246.571 488.16 245.371 489.42 243.591 491.28L248.571 497H246.351C245.531 495.94 243.311 493.34 241.851 491.64V497H240.191ZM253.493 497V488.08C253.493 487.6 253.493 486.98 253.473 486.5H255.053V488.2C255.413 487.1 256.513 486.26 257.713 486.26C257.813 486.26 257.933 486.26 258.033 486.28V487.86C257.873 487.82 257.573 487.8 257.353 487.8C255.733 487.8 255.153 489.16 255.153 491.26V497H253.493ZM263.444 497.26C260.144 497.26 258.184 494.96 258.184 491.78C258.184 488.48 260.284 486.22 263.464 486.22C266.924 486.22 268.444 488.86 268.444 491.66C268.444 491.86 268.424 491.96 268.424 492.02H259.844C259.964 494.5 261.344 495.92 263.484 495.92C265.064 495.92 266.024 495.02 266.524 494.02H268.204C267.544 495.86 265.844 497.26 263.444 497.26ZM259.924 490.78H266.704C266.504 488.88 265.484 487.52 263.424 487.52C261.424 487.52 260.184 488.84 259.924 490.78ZM277.837 500.6V498.1C277.837 497.34 277.857 496.3 277.877 495.48C277.237 496.38 276.057 497.26 274.297 497.26C271.437 497.26 269.377 495.24 269.377 491.74C269.377 488.5 271.417 486.22 274.177 486.22C276.117 486.22 277.297 487.18 277.897 488.16C277.877 487.68 277.877 487.06 277.877 486.52H279.497V500.6H277.837ZM274.537 495.92C276.717 495.92 277.877 494.28 277.877 491.74C277.877 489.3 276.717 487.58 274.537 487.58C272.397 487.58 271.177 489.3 271.177 491.74C271.177 494.28 272.377 495.92 274.537 495.92ZM285.295 497.28C282.875 497.28 281.735 495.72 281.735 493.06V486.5H283.395V492.56C283.395 494.62 284.155 495.94 285.935 495.94C287.655 495.94 288.555 494.48 288.555 492.82V486.5H290.215V495.4C290.215 495.94 290.215 496.46 290.235 497H288.595V495.56C288.095 496.4 287.115 497.28 285.295 497.28ZM297.157 497.26C293.857 497.26 291.897 494.96 291.897 491.78C291.897 488.48 293.997 486.22 297.177 486.22C300.637 486.22 302.157 488.86 302.157 491.66C302.157 491.86 302.137 491.96 302.137 492.02H293.557C293.677 494.5 295.057 495.92 297.197 495.92C298.777 495.92 299.737 495.02 300.237 494.02H301.917C301.257 495.86 299.557 497.26 297.157 497.26ZM293.637 490.78H300.417C300.217 488.88 299.197 487.52 297.137 487.52C295.137 487.52 293.897 488.84 293.637 490.78ZM307.25 497.24C304.95 497.24 303.33 496.24 302.89 493.82H304.51C304.89 495.16 305.71 495.94 307.29 495.94C308.73 495.94 309.71 495.24 309.71 494.2C309.71 493.16 308.85 492.86 307.49 492.48L306.25 492.14C304.57 491.68 303.27 491.06 303.27 489.26C303.27 487.38 304.89 486.22 307.17 486.22C309.29 486.22 310.81 487.14 311.13 489.26H309.57C309.27 488.22 308.51 487.52 307.13 487.52C305.69 487.52 304.93 488.18 304.93 489.04C304.93 490.08 305.87 490.4 307.03 490.74L308.35 491.12C310.15 491.64 311.33 492.34 311.33 494C311.33 496.06 309.63 497.24 307.25 497.24ZM316.211 497.2C314.471 497.2 313.331 496.6 313.331 494.58V487.74H311.711V486.5H313.331V483.66H314.971V486.5H316.971V487.74H314.971V494.44C314.971 495.5 315.471 495.94 316.451 495.94C316.551 495.94 316.611 495.94 316.771 495.92V497.16C316.591 497.18 316.391 497.2 316.211 497.2ZM321.822 497.24C319.522 497.24 317.902 496.24 317.462 493.82H319.082C319.462 495.16 320.282 495.94 321.862 495.94C323.302 495.94 324.282 495.24 324.282 494.2C324.282 493.16 323.422 492.86 322.062 492.48L320.822 492.14C319.142 491.68 317.842 491.06 317.842 489.26C317.842 487.38 319.462 486.22 321.742 486.22C323.862 486.22 325.382 487.14 325.702 489.26H324.142C323.842 488.22 323.082 487.52 321.702 487.52C320.262 487.52 319.502 488.18 319.502 489.04C319.502 490.08 320.442 490.4 321.602 490.74L322.922 491.12C324.722 491.64 325.902 492.34 325.902 494C325.902 496.06 324.202 497.24 321.822 497.24ZM329.393 493.02C329.413 491.16 329.813 490.38 330.893 489.42C331.833 488.58 332.853 487.78 332.853 486.14C332.853 484.76 331.973 483.82 330.273 483.82C328.553 483.82 327.673 484.84 327.613 486.78H325.933C325.913 484.12 327.713 482.42 330.353 482.42C333.053 482.42 334.633 484 334.633 486.1C334.633 487.84 333.513 488.98 332.493 489.88C331.533 490.72 330.933 491.32 330.913 493.02H329.393ZM329.273 497V494.86H331.033V497H329.273Z" fill="black"/>
<path d="M356 715H341L356 730V715Z" fill="#9AF3FF"/>
<path d="M134 681C134 669.954 142.954 661 154 661H336C347.046 661 356 669.954 356 681V715H154C142.954 715 134 706.046 134 695V681Z" fill="#9AF3FF"/>
<path d="M159.18 695V689.5L154.3 680.7H156.2C157.36 682.96 159 685.86 160.12 687.94C161.8 684.84 162.98 682.78 164.06 680.7H165.84L160.88 689.5V695H159.18ZM169.829 695.26C166.469 695.26 164.549 692.98 164.549 689.76C164.549 686.56 166.589 684.22 169.869 684.22C173.129 684.22 175.189 686.56 175.189 689.76C175.189 692.98 173.189 695.26 169.829 695.26ZM169.829 693.92C172.109 693.92 173.389 692.24 173.389 689.74C173.389 687.32 172.089 685.56 169.829 685.56C167.549 685.56 166.249 687.32 166.249 689.74C166.249 692.24 167.529 693.92 169.829 693.92ZM180.311 695.28C177.891 695.28 176.751 693.72 176.751 691.06V684.5H178.411V690.56C178.411 692.62 179.171 693.94 180.951 693.94C182.671 693.94 183.571 692.48 183.571 690.82V684.5H185.231V693.4C185.231 693.94 185.231 694.46 185.251 695H183.611V693.56C183.111 694.4 182.131 695.28 180.311 695.28ZM197.131 695.26C195.311 695.26 194.091 694.34 193.471 693.4V695H191.931V680.7H193.591V683.76C193.591 684.44 193.591 685.4 193.571 686.12C194.171 685.16 195.371 684.22 197.251 684.22C200.131 684.22 202.051 686.44 202.051 689.68C202.051 693.06 199.991 695.26 197.131 695.26ZM196.891 693.92C199.051 693.92 200.251 692.28 200.251 689.74C200.251 687.3 199.031 685.56 196.891 685.56C194.711 685.56 193.551 687.3 193.551 689.74C193.551 692.28 194.711 693.92 196.891 693.92ZM208.288 695.26C204.988 695.26 203.028 692.96 203.028 689.78C203.028 686.48 205.128 684.22 208.308 684.22C211.768 684.22 213.288 686.86 213.288 689.66C213.288 689.86 213.268 689.96 213.268 690.02H204.688C204.808 692.5 206.188 693.92 208.328 693.92C209.908 693.92 210.868 693.02 211.368 692.02H213.048C212.388 693.86 210.688 695.26 208.288 695.26ZM204.768 688.78H211.548C211.348 686.88 210.328 685.52 208.268 685.52C206.268 685.52 205.028 686.84 204.768 688.78ZM218.103 695.2C216.363 695.2 215.223 694.6 215.223 692.58V685.74H213.603V684.5H215.223V681.66H216.863V684.5H218.863V685.74H216.863V692.44C216.863 693.5 217.363 693.94 218.343 693.94C218.443 693.94 218.503 693.94 218.663 693.92V695.16C218.483 695.18 218.283 695.2 218.103 695.2ZM219.994 695V692.78H221.754V695H219.994ZM232.04 695.28C229.04 695.28 227.02 693.74 226.72 690.94H228.42C228.7 692.82 229.94 693.92 232.08 693.92C234.14 693.92 235.4 692.9 235.4 691.3C235.4 689.54 233.68 688.98 232.08 688.46L231.22 688.18C228.82 687.4 227.24 686.4 227.24 684.16C227.24 681.92 229.04 680.42 232.04 680.42C234.94 680.42 236.64 681.84 236.9 684.4H235.24C234.92 682.62 233.82 681.76 231.98 681.76C230.12 681.76 229 682.6 229 683.98C229 685.56 230.34 686.16 232.06 686.72L233.04 687.04C235.38 687.8 237.18 688.72 237.18 691.08C237.18 693.72 235.1 695.28 232.04 695.28ZM243.429 695.26C240.129 695.26 238.169 692.96 238.169 689.78C238.169 686.48 240.269 684.22 243.449 684.22C246.909 684.22 248.429 686.86 248.429 689.66C248.429 689.86 248.409 689.96 248.409 690.02H239.829C239.949 692.5 241.329 693.92 243.469 693.92C245.049 693.92 246.009 693.02 246.509 692.02H248.189C247.529 693.86 245.829 695.26 243.429 695.26ZM239.909 688.78H246.689C246.489 686.88 245.469 685.52 243.409 685.52C241.409 685.52 240.169 686.84 239.909 688.78ZM254.602 695.26C251.302 695.26 249.342 692.96 249.342 689.78C249.342 686.48 251.442 684.22 254.622 684.22C258.082 684.22 259.602 686.86 259.602 689.66C259.602 689.86 259.582 689.96 259.582 690.02H251.002C251.122 692.5 252.502 693.92 254.642 693.92C256.222 693.92 257.182 693.02 257.682 692.02H259.362C258.702 693.86 257.002 695.26 254.602 695.26ZM251.082 688.78H257.862C257.662 686.88 256.642 685.52 254.582 685.52C252.582 685.52 251.342 686.84 251.082 688.78ZM266.306 698.6L267.766 695.06C266.566 691.88 264.986 687.8 263.726 684.5H265.586C266.746 687.84 267.906 691.04 268.646 693.1C269.286 691.36 270.926 686.98 271.786 684.5H273.506C271.666 689.14 269.926 693.8 267.966 698.6H266.306ZM274.081 687.68V687.64C274.081 685.68 275.801 684.22 278.301 684.22C281.061 684.22 282.381 685.5 282.381 688.72L282.361 692.9C282.361 693.8 282.421 694.5 282.541 695H281.041C280.981 694.52 280.941 694.04 280.921 693.44C280.181 694.52 279.081 695.2 277.241 695.2C275.061 695.2 273.581 694.2 273.581 692.3C273.581 690.12 275.581 689.38 278.201 688.94C278.981 688.82 279.881 688.68 280.801 688.6V688.48C280.801 686.42 280.061 685.52 278.221 685.52C276.581 685.52 275.801 686.32 275.661 687.68H274.081ZM280.841 690.3V689.96C280.841 689.88 280.841 689.82 280.861 689.76C280.601 689.82 280.321 689.84 280.061 689.88L278.041 690.2C276.141 690.5 275.281 691.06 275.281 692.26C275.281 693.4 276.221 694.06 277.661 694.06C279.701 694.06 280.841 692.72 280.841 690.3ZM292.373 695.24C290.073 695.24 288.453 694.24 288.013 691.82H289.633C290.013 693.16 290.833 693.94 292.413 693.94C293.853 693.94 294.833 693.24 294.833 692.2C294.833 691.16 293.973 690.86 292.613 690.48L291.373 690.14C289.693 689.68 288.393 689.06 288.393 687.26C288.393 685.38 290.013 684.22 292.293 684.22C294.413 684.22 295.933 685.14 296.253 687.26H294.693C294.393 686.22 293.633 685.52 292.253 685.52C290.813 685.52 290.053 686.18 290.053 687.04C290.053 688.08 290.993 688.4 292.153 688.74L293.473 689.12C295.273 689.64 296.453 690.34 296.453 692C296.453 694.06 294.753 695.24 292.373 695.24ZM302.634 695.26C299.274 695.26 297.354 692.98 297.354 689.76C297.354 686.56 299.394 684.22 302.674 684.22C305.934 684.22 307.994 686.56 307.994 689.76C307.994 692.98 305.994 695.26 302.634 695.26ZM302.634 693.92C304.914 693.92 306.194 692.24 306.194 689.74C306.194 687.32 304.894 685.56 302.634 685.56C300.354 685.56 299.054 687.32 299.054 689.74C299.054 692.24 300.334 693.92 302.634 693.92ZM314.237 695.26C310.877 695.26 308.957 692.98 308.957 689.76C308.957 686.56 310.997 684.22 314.277 684.22C317.537 684.22 319.597 686.56 319.597 689.76C319.597 692.98 317.597 695.26 314.237 695.26ZM314.237 693.92C316.517 693.92 317.797 692.24 317.797 689.74C317.797 687.32 316.497 685.56 314.237 685.56C311.957 685.56 310.657 687.32 310.657 689.74C310.657 692.24 311.937 693.92 314.237 693.92ZM321.279 695V686.08C321.279 685.6 321.279 684.98 321.259 684.5H322.899V686C323.439 685.12 324.519 684.22 326.319 684.22C328.719 684.22 329.919 685.78 329.919 688.44V695H328.259V688.96C328.259 686.86 327.479 685.56 325.679 685.56C323.919 685.56 322.939 687 322.939 688.7V695H321.279ZM332.598 691.28C332.498 688.78 332.318 686.02 332.318 682.86V680.7H333.978V682.86C333.978 686.02 333.798 688.78 333.698 691.28H332.598ZM332.278 695V692.78H334.038V695H332.278Z" fill="black"/>
<circle cx="146" cy="34.5127" r="15" fill="white"/>
<path d="M140.112 40.0127V31.4027H137.277V29.2877H145.407V31.4027H142.572V40.0127H140.112ZM150.242 40.2077C147.662 40.2077 146.027 38.9027 145.937 36.7577H148.457C148.607 37.7177 149.237 38.2277 150.347 38.2277C151.337 38.2277 151.997 37.7327 151.997 36.9827C151.997 36.2477 151.442 36.0677 150.287 35.7377L149.552 35.5277C147.677 34.9877 146.237 34.2977 146.237 32.3027C146.237 30.3977 147.842 29.0927 150.287 29.0927C152.627 29.0927 154.187 30.2477 154.292 32.3177H151.832C151.682 31.5077 151.172 31.0427 150.197 31.0427C149.297 31.0427 148.802 31.4927 148.802 32.1227C148.802 32.8427 149.312 33.0677 150.137 33.3077L150.962 33.5477C153.077 34.1627 154.532 34.8227 154.532 36.8627C154.532 38.9177 152.807 40.2077 150.242 40.2077Z" fill="black"/>
<circle cx="120" cy="55.0024" r="15" fill="white"/>
<path d="M112.169 60.5024V49.7774H115.379C115.919 49.7774 116.054 49.7774 116.519 49.7924C118.874 49.8674 120.224 51.1424 120.224 53.2124C120.224 54.3524 119.804 55.3274 119.009 55.9274C118.019 56.6774 116.669 56.6774 115.529 56.6774H114.629V60.5024H112.169ZM114.629 54.6674H115.874C117.059 54.6674 117.749 54.2324 117.749 53.2574C117.749 52.3124 117.164 51.8624 115.829 51.8624H114.629V54.6674ZM121.749 60.5024V49.7774H124.209V58.3874H128.709V60.5024H121.749Z" fill="black"/>
<circle cx="256" cy="55.0024" r="15" fill="white"/>
<path d="M245.987 60.5024V49.7774H248.447V53.9174H252.347V49.7774H254.807V60.5024H252.347V56.0324H248.447V60.5024H245.987ZM257.207 60.5024V49.7774H259.877C260.282 49.7774 261.017 49.7774 261.422 49.7924C264.602 49.9124 266.642 51.8174 266.642 55.1024C266.642 56.9474 265.802 58.8824 264.467 59.6024C263.252 60.4424 261.827 60.5024 259.847 60.5024H257.207ZM259.667 58.4174H260.507C261.137 58.4174 261.677 58.3574 262.112 58.2224C263.372 57.8474 264.047 56.8724 264.047 55.1174C264.047 53.4674 263.357 52.4474 262.112 52.0424C261.707 51.9074 261.227 51.8474 260.657 51.8474H259.667V58.4174Z" fill="black"/>
<circle cx="230" cy="34.5127" r="15" fill="white"/>
<path d="M223.436 40.2077C220.481 40.2077 218.441 37.9577 218.441 34.6427C218.441 31.3277 220.601 29.0927 223.946 29.0927C226.541 29.0927 228.371 30.4727 229.046 32.7677L226.361 32.7827C225.911 31.7477 225.116 31.1477 223.901 31.1477C222.086 31.1477 221.006 32.5577 221.006 34.6127C221.006 36.7427 222.101 38.1377 223.961 38.1377C225.611 38.1377 226.361 37.2077 226.616 36.0827C226.136 36.0977 225.731 36.0977 225.236 36.0977H223.316V34.1027H229.046V40.0127H226.751V39.4427C226.751 39.2027 226.766 38.9927 226.766 38.8427H226.751C226.151 39.5927 224.981 40.2077 223.436 40.2077ZM235.565 40.2077C232.61 40.2077 230.57 37.9577 230.57 34.6427C230.57 31.3277 232.73 29.0927 236.075 29.0927C238.67 29.0927 240.5 30.4727 241.175 32.7677L238.49 32.7827C238.04 31.7477 237.245 31.1477 236.03 31.1477C234.215 31.1477 233.135 32.5577 233.135 34.6127C233.135 36.7427 234.23 38.1377 236.09 38.1377C237.74 38.1377 238.49 37.2077 238.745 36.0827C238.265 36.0977 237.86 36.0977 237.365 36.0977H235.445V34.1027H241.175V40.0127H238.88V39.4427C238.88 39.2027 238.895 38.9927 238.895 38.8427H238.88C238.28 39.5927 237.11 40.2077 235.565 40.2077Z" fill="black"/>
<circle cx="188" cy="45.0024" r="25" fill="black"/>
<path d="M171.489 50.8359V40.1109H174.324C174.819 40.1109 175.284 40.1109 175.734 40.1259C177.984 40.2009 179.244 41.0859 179.244 42.8709C179.244 44.1309 178.419 44.9109 177.279 45.1809C178.449 45.3309 179.619 46.0659 179.619 47.7759C179.619 49.6509 178.434 50.4609 176.784 50.7309C176.319 50.8059 175.749 50.8359 175.179 50.8359H171.489ZM173.904 44.4309H174.834C176.169 44.4309 176.829 44.1609 176.829 43.2009C176.829 42.2859 176.139 42.0759 175.014 42.0759H173.904V44.4309ZM173.904 48.8709H174.789C176.229 48.8709 177.159 48.6609 177.159 47.5359C177.159 46.5609 176.364 46.2609 175.209 46.2609H173.904V48.8709ZM181.377 50.8359V40.1109H188.307V42.2109H183.837V44.3859H187.992V46.4559H183.837V50.8359H181.377ZM189.99 50.8359V40.1109H196.92V42.2109H192.45V44.3859H196.605V46.4559H192.45V50.8359H189.99ZM201.547 51.0759C199.117 51.0759 197.857 50.1759 197.617 48.2559H200.032C200.182 49.0209 200.707 49.4109 201.577 49.4109C202.297 49.4109 202.822 49.1259 202.822 48.6759C202.822 48.2409 202.402 48.0609 201.502 47.8209L200.497 47.5509C198.787 47.0859 197.902 46.5309 197.902 45.1509C197.902 43.6809 199.192 42.6909 201.442 42.6909C203.452 42.6909 204.877 43.5159 205.042 45.2409H202.762C202.582 44.6709 202.132 44.3259 201.367 44.3259C200.662 44.3259 200.272 44.5959 200.272 45.0009C200.272 45.5109 200.782 45.6309 201.877 45.9159L202.402 46.0509C204.457 46.5759 205.237 47.1459 205.237 48.5259C205.237 50.1009 203.872 51.0759 201.547 51.0759Z" fill="white"/>
</g>
<defs>
<clipPath id="clip0_1_637">
<rect x="0.5" width="375" height="750" rx="30" fill="white"/>
</clipPath>
</defs>
</svg>
