<svg width="206" height="56" viewBox="0 0 206 56" fill="none" xmlns="http://www.w3.org/2000/svg">
<path d="M57.8398 25.8004V0.500977H75.7794V6.23315H65.1289V10.1608H74.8948V15.8929H65.1289V20.0682H75.921V25.8004H57.8398Z" fill="black"/>
<path d="M38.532 25.8004C36.0197 18.4052 32.1983 6.69314 30.2168 0.500977H37.6474L40.1243 8.81617C41.115 12.0715 42.0704 15.4329 43.0965 19.8205H43.2027C44.4765 14.9729 45.2549 12.3899 46.458 8.39156L48.8641 0.500977H56.0824C53.7824 7.6485 47.6256 25.4466 47.5195 25.8004H38.532Z" fill="black"/>
<path d="M21.0645 25.8004V0.500977H28.4597V25.8004H21.0645Z" fill="black"/>
<path d="M0.537109 25.8004V0.500977H7.93232V20.0682H18.4767V25.8004H0.537109Z" fill="black"/>
<path d="M183.599 25.8004V0.500977H194.568C197.505 0.500977 199.664 0.819431 201.433 2.09325C203.237 3.40245 204.264 5.52548 204.264 7.96696C204.264 12.3899 201.893 14.796 199.204 15.7514L205.537 25.8004H197.399L192.304 16.8837H190.782V25.8004H183.599ZM190.782 11.4346H193.188C195.559 11.4346 196.904 10.5854 196.904 8.71002C196.904 6.65776 195.488 6.02085 192.941 6.02085H190.782V11.4346Z" fill="black"/>
<path d="M154.539 25.8004C156.874 19.219 160.448 9.59461 163.88 0.500977H172.514C175.486 8.81617 178.812 17.7329 181.749 25.8004H174.283C173.576 23.925 173.009 22.3682 172.372 20.4574H163.668L161.793 25.8004H154.539ZM165.437 15.0083H170.603C169.754 12.3545 168.799 9.06386 168.056 5.98547H167.95C167.277 8.9577 166.286 12.3192 165.437 15.0083Z" fill="black"/>
<path d="M134.609 25.8004V0.500977H152.549V6.23315H141.898V10.1608H151.664V15.8929H141.898V20.0682H152.69V25.8004H134.609Z" fill="black"/>
<path d="M107.424 25.8004V0.500977H116.977L120.41 8.39156C121.79 11.5407 122.993 14.6899 123.842 16.9898C123.877 16.9898 123.913 16.9544 123.948 16.9544C123.807 14.4422 123.771 12.4607 123.771 9.52385V0.500977H130.423V25.8004H121.188L116.659 15.8222C115.244 12.7084 114.961 11.7884 114.041 8.88694H113.934C114.076 11.4346 114.076 13.3099 114.076 16.2114V25.8004H107.424Z" fill="black"/>
<path fill-rule="evenodd" clip-rule="evenodd" d="M91.6716 0.5L80.1719 10.1793V25.7994H103.171V10.1793L91.6716 0.5Z" fill="#03C745"/>
<path fill-rule="evenodd" clip-rule="evenodd" d="M171.037 30.2422L159.537 39.9215V55.5416H182.537V39.9215L171.037 30.2422Z" fill="#E1BAFF"/>
<path fill-rule="evenodd" clip-rule="evenodd" d="M194.037 30.2422L182.537 39.9215V55.5416H205.537V39.9215L194.037 30.2422Z" fill="#FC4F24"/>
<path opacity="0.9" d="M144.125 56.0016C137.473 56.0016 133.758 52.8171 133.439 47.5803H140.764C141.047 49.7741 142.215 50.7648 144.408 50.7648C146.284 50.7648 147.664 49.8448 147.664 48.3233C147.664 46.8372 146.425 46.5895 143.878 45.8819L142.25 45.4219C136.482 43.7942 134.076 41.3173 134.076 37.319C134.076 32.7545 137.862 29.7822 144.161 29.7822C150.141 29.7822 153.997 32.6129 154.316 37.7436H147.239C146.921 35.8329 145.93 34.9129 144.019 34.9129C142.285 34.9129 141.33 35.6913 141.33 36.9298C141.33 38.6282 142.745 39.0174 145.505 39.8312L146.815 40.2204C152.582 41.9189 154.847 43.9004 154.847 48.0049C154.847 52.9232 150.742 56.0016 144.125 56.0016Z" fill="black"/>
<path opacity="0.9" d="M107.422 55.5416V30.2422H115.596C116.622 30.2422 118.32 30.2422 119.275 30.2776C126.777 30.5606 131.589 35.0544 131.589 42.8034C131.589 47.2618 129.501 51.5786 126.458 53.454C123.026 55.5416 118.922 55.5416 115.56 55.5416H107.422ZM114.746 49.8448H116.622C117.966 49.8448 119.099 49.7033 120.019 49.4202C122.708 48.6064 124.017 46.5541 124.017 42.8388C124.017 39.3358 122.708 37.1774 120.054 36.3282C119.205 36.0451 118.214 35.9036 116.905 35.9036H114.746V49.8448Z" fill="black"/>
<path d="M80.1719 55.5416V30.2422H89.7255L93.1577 38.1328C94.5377 41.2819 95.7407 44.4311 96.59 46.731C96.6253 46.731 96.6607 46.6957 96.6961 46.6957C96.5546 44.1834 96.5192 42.2019 96.5192 39.2651V30.2422H103.171V55.5416H93.9362L89.407 45.5634C87.9917 42.4496 87.7086 41.5296 86.7887 38.6281H86.6825C86.824 41.1758 86.824 43.0511 86.824 45.9526V55.5416H80.1719Z" fill="black"/>
<path d="M57.8398 55.5416V30.2422H75.7794V35.9744H65.1289V39.902H74.8948V45.6341H65.1289V49.8094H75.921V55.5416H57.8398Z" fill="black"/>
<path d="M46.1462 55.5416V30.2422H53.5415V55.5416H46.1462Z" fill="black"/>
<path d="M21.0645 55.5416V30.2422H32.0334C34.9703 30.2422 37.1287 30.5606 38.8979 31.8345C40.7025 33.1437 41.7286 35.2667 41.7286 37.7082C41.7286 42.1311 39.3579 44.5372 36.6687 45.4926L43.0024 55.5416H34.8641L29.7689 46.6249H28.2474V55.5416H21.0645ZM28.2474 41.1758H30.6535C33.0242 41.1758 34.3688 40.3266 34.3688 38.4512C34.3688 36.399 32.9534 35.7621 30.4058 35.7621H28.2474V41.1758Z" fill="black"/>
<path d="M0.537109 55.5406V30.2412H18.2644V35.9734H7.82617V39.901H17.4506V45.6332H7.82617V55.5406H0.537109Z" fill="black"/>
</svg>
